<?xml version="1.0" encoding="UTF-8" standalone="no"?>
<!-- Created with Inkscape (http://www.inkscape.org/) -->

<svg
   xmlns:dc="http://purl.org/dc/elements/1.1/"
   xmlns:cc="http://creativecommons.org/ns#"
   xmlns:rdf="http://www.w3.org/1999/02/22-rdf-syntax-ns#"
   xmlns:svg="http://www.w3.org/2000/svg"
   xmlns="http://www.w3.org/2000/svg"
   version="1.2"
   width="1200"
   height="1200"
   viewBox="0 0 1200 1200"
   id="yolk_icon2">
  <defs
     id="defs4">
    <filter
       color-interpolation-filters="sRGB"
       id="filter3802">
      <feFlood
         id="feFlood3804"
         result="flood"
         flood-color="rgb(0,0,0)"
         flood-opacity="0.5" />
      <feComposite
         in2="SourceGraphic"
         operator="in"
         in="flood"
         result="composite1"
         id="feComposite3806" />
      <feGaussianBlur
         id="feGaussianBlur3808"
         result="blur"
         stdDeviation="2" />
      <feOffset
         id="feOffset3810"
         result="offset"
         dy="4"
         dx="4" />
      <feComposite
         in2="offset"
         operator="over"
         in="SourceGraphic"
         result="composite2"
         id="feComposite3812" />
    </filter>
    <filter
       color-interpolation-filters="sRGB"
       id="filter3802-1">
      <feFlood
         id="feFlood3804-3"
         result="flood"
         flood-color="rgb(0,0,0)"
         flood-opacity="0.5" />
      <feComposite
         in2="SourceGraphic"
         operator="in"
         in="flood"
         result="composite1"
         id="feComposite3806-2" />
      <feGaussianBlur
         id="feGaussianBlur3808-1"
         result="blur"
         stdDeviation="2" />
      <feOffset
         id="feOffset3810-5"
         result="offset"
         dy="4"
         dx="4" />
      <feComposite
         in2="offset"
         operator="over"
         in="SourceGraphic"
         result="composite2"
         id="feComposite3812-9" />
    </filter>
    <path
       d="m -668.0564,1048.8328 c 41.40945,136.6362 136.8365,256.7952 263.00678,324.346 76.7586,41.8428 163.99246,63.1502 251.33038,64.7276 129.757042,4.2353 259.41127,-24.3708 378.26027,-75.495 109.4289,-48.3313 210.50279,-119.0641 286.13469,-212.3263 76.64186,-99.5869 113.11013,-230.92071 92.62048,-355.65164"
       id="path3964"
       style="fill:none;stroke:#000000;stroke-width:2.00442934;stroke-opacity:1;display:inline" />
  </defs>
  <metadata
     id="metadata7">
    <rdf:RDF>
      <cc:Work
         rdf:about="">
        <dc:format>image/svg+xml</dc:format>
        <dc:type
           rdf:resource="http://purl.org/dc/dcmitype/StillImage" />
        <dc:title></dc:title>
      </cc:Work>
    </rdf:RDF>
  </metadata>
  <g
     transform="matrix(0.86110181,0.50843256,-0.50843256,0.86110181,-484.38534,-26.69979)"
     id="g5"
     style="display:inline">
    <path
       d="m 1726.1696,432.75717 a 98.224205,98.224205 0 1 1 -196.4484,0 98.224205,98.224205 0 1 1 196.4484,0 z m -176.6113,-91.31821 c -9.0145,5.98662 -17.3452,13.31018 -24.7008,22.1847 -31.1394,39.33146 -37.5914,96.51044 -29.9359,146.97233 8.3889,67.89582 66.8011,117.6904 125.7898,119.12645 51.4753,1.91213 103.3823,-11.12658 149.1815,-37.79969 36.1222,-21.75703 73.6518,-51.2901 87.0262,-97.2021 10.666,-35.41496 -7.9455,-71.7771 -30.8756,-94.91021 -50.492,-50.63552 -117.6999,-79.64453 -185.131,-81.03943 -31.1431,-1.12233 -64.3106,4.70809 -91.3542,22.66795 z"
       transform="matrix(2.1311476,0,0,1.8852459,-2366.5934,-944.02545)"
       id="path17"
       style="fill:#ffffff;stroke:#000000;stroke-opacity:1;filter:url(#filter3802)" />
    <path
       d="m 1726.1696,432.75717 a 98.224205,98.224205 0 1 1 -196.4484,0 98.224205,98.224205 0 1 1 196.4484,0 z"
       transform="matrix(2.1311476,0,0,1.8852459,-2366.5934,-944.02545)"
       id="path3015"
       style="fill:#302b22;fill-opacity:1;stroke:none" />
    <path
       d="m 1726.1696,432.75717 a 98.224205,98.224205 0 1 1 -196.4484,0 98.224205,98.224205 0 1 1 196.4484,0 z"
       transform="matrix(2.1311476,0,0,1.8852459,-2366.5934,-944.02545)"
       id="path6"
       style="fill:#ff8c00;stroke:none"
	   class='throb' />
    <g
       transform="matrix(0.9762081,-0.21683575,0.21683575,0.9762081,34.359635,237.7998)"
       id="g8">
      <path
         d="m 1064.2013,-268.41775 c -4.4742,1.26514 -8.6483,3.48703 -11.3437,6.03846 -2.6955,2.55142 -3.8793,5.40099 -3.2172,7.74425 0.663,2.34304 3.1637,4.15076 6.7961,4.9129 3.6324,0.76214 8.3519,0.46929 12.8262,-0.79588 4.4744,-1.26516 8.6484,-3.48705 11.3439,-6.03849 2.6954,-2.55142 3.8792,-5.40099 3.2171,-7.74425 -0.663,-2.34304 -3.1637,-4.15076 -6.7961,-4.9129 -3.6324,-0.76214 -8.3519,-0.4693 -12.8263,0.79591 z"
         id="path3110-6"
         style="fill:#ffffff;stroke:none;display:inline" />
      <path
         d="m 1021.5952,-252.95843 c -4.4739,1.26531 -8.6474,3.48718 -11.3425,6.03848 -2.6952,2.55132 -3.8787,5.40062 -3.2165,7.74373 0.6629,2.34287 3.1632,4.15052 6.7953,4.91274 3.632,0.76222 8.351,0.46963 12.8251,-0.79521 4.4743,-1.26514 8.6483,-3.48703 11.3438,-6.03849 2.6955,-2.55142 3.8792,-5.40096 3.2171,-7.74422 -0.663,-2.34305 -3.1636,-4.15079 -6.796,-4.91294 -3.6324,-0.76213 -8.352,-0.46926 -12.8263,0.79591 z"
         id="path3108-7"
         style="fill:#ffffff;stroke:none;display:inline" />
      <path
         d="m 1098.1008,-259.56947 c -5.48,1.50859 -9.3225,5.34149 -9.252,9.22888 0.046,2.5445 1.6832,5.04457 4.4497,6.79441 2.7665,1.74985 6.6282,2.7279 10.4947,2.65806 3.8669,-0.0701 7.6908,-1.18735 10.3923,-3.03632 2.7015,-1.84904 4.247,-4.40698 4.2003,-6.95166 -0.047,-2.54411 -1.6841,-5.04361 -4.4504,-6.79307 -2.7663,-1.74945 -6.6273,-2.72729 -10.4934,-2.65752 -1.8259,0.0329 -3.6472,0.29111 -5.3412,0.75726 z"
         id="path3106-5"
         style="fill:#ffffff;stroke:none;display:inline" />
      <path
         d="m 1056.9179,-241.27317 c -6.982,1.97428 -13.275,6.22138 -17.1022,11.5423 -3.8272,5.32091 -5.1414,11.65007 -3.5718,17.20064 1.5694,5.55063 6.0033,10.2544 12.0502,12.7833 6.0468,2.52891 13.6319,2.85182 20.614,0.87758 6.982,-1.97426 13.275,-6.2214 17.1023,-11.54232 3.8271,-5.32088 5.1414,-11.65006 3.5718,-17.20063 -1.5694,-5.55063 -6.0034,-10.25438 -12.0502,-12.78331 -6.0468,-2.52891 -13.6321,-2.8518 -20.6141,-0.87756 z"
         id="path3104-3"
         style="fill:#ffffff;stroke:none;display:inline" />
      <path
         d="m 1010.8506,-224.31553 c -1.2224,0.35292 -2.4442,0.83589 -3.6113,1.42706 -3.0561,1.54758 -5.7022,3.85807 -7.1913,6.27922 -1.48897,2.4211 -1.80265,4.92302 -0.85236,6.79935 0.95036,1.87597 3.15276,3.10334 5.98536,3.33564 2.8326,0.23232 6.2605,-0.53326 9.3162,-2.08066 3.0561,-1.54756 5.7022,-3.85808 7.1912,-6.27919 1.4891,-2.42113 1.8028,-4.92306 0.8525,-6.79938 -1.5377,-3.03559 -6.5125,-4.17694 -11.6903,-2.68204 z"
         id="path3102-5"
         style="fill:#ffffff;stroke:none;display:inline" />
      <path
         d="m 1113.3156,-233.47681 c -3.8664,1.09326 -7.3773,3.35233 -9.5418,6.13951 -2.1644,2.78715 -2.9557,6.0681 -2.1504,8.91655 0.8055,2.8484 3.1978,5.22916 6.5012,6.47022 3.3035,1.24103 7.4775,1.3271 11.3439,0.23382 3.8663,-1.09324 7.3773,-3.35233 9.5417,-6.13948 2.1645,-2.78717 2.9557,-6.0681 2.1504,-8.91655 -0.8055,-2.8484 -3.1977,-5.22919 -6.5012,-6.47022 -3.3034,-1.24106 -7.4775,-1.3271 -11.3438,-0.23385 z"
         id="path3100-6"
         style="fill:#ffffff;stroke:none;display:inline" />
      <path
         d="m 1019.1583,-200.57685 c -1.4993,0.43225 -2.9987,1.02147 -4.432,1.74033 -3.7524,1.88193 -7.008,4.67908 -8.8474,7.60169 -1.8395,2.92261 -2.2403,5.93472 -1.0892,8.18593 1.1512,2.25124 3.8401,3.71384 7.3075,3.97484 3.4676,0.26096 7.6709,-0.68289 11.4234,-2.56508 3.7525,-1.88196 7.008,-4.67911 8.8475,-7.60172 1.8395,-2.92261 2.2402,-5.93472 1.0892,-8.18593 -1.8627,-3.64258 -7.948,-4.98316 -14.299,-3.15006 z"
         id="yolk_white-2"
         style="fill:#ffffff;stroke:none;display:inline" />
    </g>
  </g>
  <g
     transform="translate(2286.7262,-1029.1515)"
     id="g4409"
     style="fill:#302b22;fill-opacity:1;stroke:none">
    <g
       transform="matrix(0.86110181,0.50843256,-0.50843256,0.86110181,-1247.6842,921.06493)"
       id="text3915"
       style="font-size:236.95201111px;font-style:normal;font-weight:normal;line-height:125%;letter-spacing:0px;word-spacing:0px;fill:#302b22;fill-opacity:1;stroke:none;display:inline;font-family:Sans">
      <path
         d="m -318.31216,1135.4017 c -1.81513,4.7895 -9.64602,9.6087 -5.5,15.3437 6.13231,7.5796 16.87138,2.2041 24.3125,0.3438 8.51546,-2.461 20.68365,-6.314 26.8125,2.4375 6.71387,12.3298 3.23457,27.3428 1.62382,40.6125 -4.74745,30.6776 -15.62635,60.3105 -19.31132,91.075 -0.0317,7.9955 -0.61492,18.2397 6.34375,23.5938 6.80595,3.2761 11.95293,-4.8714 14.28125,-10.125 7.90407,-18.1983 6.87169,-38.9252 9.18137,-58.4467 2.59418,-24.6557 2.8665,-50.3128 12.69363,-73.3659 2.88092,-7.3626 10.99787,-13.4896 18.90625,-9.8437 11.28405,3.523 19.01082,14.6148 30.6875,16.75 6.39075,-0.8923 5.87587,-3.3211 8.3495,-10.146 0.49878,-6.9687 1.02879,-8.3906 -4.037,-10.229 -35.95237,-9.0479 -73.40047,-11.9573 -110.0495,-17.8746 -4.35383,0.5324 -12.81981,-4.5634 -14.28731,-0.1756 l -0.007,0.05 z"
         id="path4417"
         style="font-size:200px;letter-spacing:27.62999916px;fill:#302b22;fill-opacity:1;stroke:none" />
      <path
         d="m -79.061869,1128.7767 c -7.916249,2.0562 -10.677533,11.5342 -12.687557,18.5 -0.865344,14.0838 8.267426,26.715 9.562543,40.5937 1.94993,9.0533 -2.683507,18.2184 -11.062557,22.0938 -3.750962,2.4554 -7.77553,4.0278 -12.12506,2.1875 -12.11146,-1.9289 -24.8736,-0.586 -36.12515,4.0313 -9.49415,-2.04 -20.57679,-7.5848 -21.03126,-18.75 -2.00276,-15.0907 5.98788,-29.7321 3.6875,-44.7188 -0.88746,-5.2668 -6.67186,-10.1408 -11.90625,-6.8125 -4.09929,1.8853 -9.05402,-4.6608 -12.21875,5.75 3.75168,47.7823 3.19032,96.0075 9.6875,143.5 1.67342,7.2464 2.28401,17.0165 9.75,20.8437 7.21112,1.5329 11.03858,-7.0805 13.0625,-12.5312 5.32182,-13.4102 -3.03884,-27.0253 -5.65625,-40 -3.13392,-11.655 -8.59026,-24.4681 1.90062,-33.483 4.54499,-3.5537 11.54574,-5.8798 17.80331,-3.3885 12.07271,1.5212 26.46678,1.9688 37.896134,-2.1327 18.486323,-3.6695 19.288497,2.8055 19.931477,14.3167 2.639111,17.6656 -5.475751,35.1389 -3.125004,52.7813 2.514814,7.0854 6.342945,16.284 14.531312,18 7.585559,-0.2963 8.560239,-10.0575 9.28125,-15.8126 1.528014,-36.0899 -1.87606,-72.2114 -4.84375,-108.1562 -2.240838,-16.9138 -2.362908,-34.5329 -8.406273,-50.625 -1.45519,-3.0913 -4.054834,-6.5928 -7.906285,-6.1875 z"
         id="path4419"
         style="font-size:200px;letter-spacing:27.62999916px;fill:#302b22;fill-opacity:1;stroke:none" />
      <path
         d="m 59.188174,1111.6517 c -25.500635,2.8701 -49.7609466,12.5649 -74.459433,19.2819 -6.183116,1.802 -12.365378,3.5552 -18.634304,5.1868 11.155129,40.0337 8.23425,83.5297 24.0624966,122.2813 6.3966897,15.6114 19.7667568,30.9806 37.9375024,30.6875 23.894822,-0.511 43.361778,-16.3795 62.468627,-28.9062 6.144499,-4.795 16.880737,-6.4656 18.468647,-15.3438 -0.1966,-7.2278 -9.274474,-8.8572 -14.999926,-8.75 -14.689079,1.078 -27.478175,10.1518 -41.281095,14.8125 -12.050731,4.6567 -27.772873,9.9506 -38.781255,0.031 -14.07649237,-11.682 -15.6695614,-37.6231 0.40625,-48.125 18.514608,-10.0051 40.942433,-5.3893 60.312435,-12.4063 5.640856,-2.3702 12.962047,-9.4564 8.34374,-15.8125 -6.908725,-7.1295 -18.45358,-4.0951 -26.50052,-0.8724 -16.496365,5.6713 -32.498374,16.0649 -50.5306558,15.1224 -15.6255626,-2.2506 -24.7255832,-22.1655 -15.6562496,-35.2188 7.876449,-11.546 23.6506834,-12.5107 36.2889734,-14.9621 14.23279,-3.0708 31.224507,-1.2587 42.679727,-11.6316 4.46878,-3.1381 6.19995,-11.3274 0.0937,-13.8125 -3.141605,-1.5445 -6.767495,-1.6747 -10.21871,-1.5625 z"
         id="path4421"
         style="font-size:200px;letter-spacing:27.62999916px;fill:#302b22;fill-opacity:1;stroke:none" />
      <path
         d="m 245.96909,1006.2771 c -7.7845,2.3048 -10.82211,11.3711 -13.53125,18.1559 -4.17459,13.1589 1.90481,26.7984 3.04893,40.0087 1.18038,10.8433 3.50492,25.033 -6.14268,32.8663 -9.86375,6.9063 -22.19708,-0.4893 -30.4375,-6.4063 -11.79636,-7.5417 -21.11597,-19.5325 -34.53125,-24.3437 -5.87433,-2.061 -13.67615,-0.7126 -16.03125,5.75 -1.2133,3.2727 -3.65088,5.8287 -7.03125,7 28.28946,14.5254 60.87634,21.271 86.15625,41.3437 16.76801,14.0934 20.89882,37.1318 31.3125,55.375 4.05678,6.4721 13.28351,13.4807 20.90625,8.3437 7.15025,-6.6593 3.52643,-18.2612 -1.34375,-25.0937 -12.63722,-17.9883 -30.76725,-34.8457 -31.46875,-58.25 -1.54663,-27.7099 7.74806,-54.6286 7.125,-82.25 -0.59831,-4.6861 -1.64966,-12.7726 -8.03125,-12.4996 z"
         id="path4423"
         style="font-size:200px;letter-spacing:27.62999916px;fill:#302b22;fill-opacity:1;stroke:none" />
      <path
         d="m 343.75034,951.71477 c -17.52685,0.4869 -31.26103,12.91761 -47.1875,18.46881 -8.13649,17.45292 -25.13692,32.83172 -22.78125,53.71812 3.63252,32.282 26.65997,60.3502 55.60404,73.8374 20.79619,10.3593 46.45708,6.4727 64.81322,-7.0297 22.39571,-15.498 36.26895,-45.1182 27.73899,-72.0264 -9.57271,-31.8769 -36.4283,-59.08582 -69.32762,-66.17833 -2.92905,-0.4716 -5.8821,-0.9176 -8.85988,-0.7899 z m -3.9375,22.40622 c 17.65866,0.9371 32.5779,12.86571 44.0625,25.46864 12.37026,14.68207 22.98815,35.49867 15.0625,54.74957 -7.83862,20.6091 -33.32829,33.0719 -53.96875,24.0312 -23.05701,-9.7775 -41.75179,-30.5644 -47.8125,-55.0312 -3.91647,-13.3435 5.9997,-24.65712 11.85346,-35.4563 1.43919,-4.8968 8.11412,-4.1683 11.58404,-7.19931 6.09024,-3.0317 12.30065,-6.3284 19.21875,-6.5626 z"
         id="path4425"
         style="font-size:200px;letter-spacing:27.62999916px;fill:#302b22;fill-opacity:1;stroke:none" />
      <path
         d="m 524.59409,893.05853 c -9.47323,1.6433 -16.00419,10.67361 -16.90625,19.93741 -3.52581,14.91152 -3.10558,32.95233 -15.40625,43.96884 -11.49532,8.4051 -26.74358,2.0458 -38.1193,-3.40351 -29.74756,-14.88011 -54.10768,-38.90193 -82.9432,-55.40904 -5.28293,-2.1164 -11.98919,-6.1938 -17.46875,-2.6563 -4.88688,6.33521 4.31022,14.14511 0.6875,20.75002 36.12054,20.56531 65.01512,52.67193 103.4375,69.12505 14.98011,6.27311 34.78987,8.35491 47.375,-3.75001 16.31637,-16.04351 18.72562,-40.28332 22.97504,-61.66854 0.50368,-8.06051 7.51786,-17.18611 2.18121,-24.83152 -1.46019,-1.6176 -3.66668,-2.3187 -5.8125,-2.0624 z"
         id="path4427"
         style="font-size:200px;letter-spacing:27.62999916px;fill:#302b22;fill-opacity:1;stroke:none" />
      <path
         d="m 416.96909,716.21471 c -7.72365,2.30232 -6.39831,12.25618 -5.3125,18.4375 2.0889,15.79546 11.44318,29.15646 22.125,40.46875 11.60442,13.90632 26.18562,27.60477 29.46875,46.1875 0.90872,4.87624 -2.11839,12.03659 -8.25,9.3125 -17.41491,-3.37735 -30.36905,-18.56984 -48.125,-20.8125 -6.98754,-0.37865 -13.74173,6.66898 -10.59375,13.65625 1.21113,4.13625 3.47973,8.47912 1.3125,12.78125 49.01325,9.89862 97.09647,25.05225 146.80925,31.45555 7.42936,0.7692 18.47477,1.2106 21.6595,-7.143 1.53295,-9.10816 -7.59341,-15.16619 -14.34375,-19.18755 -12.46789,-5.41904 -26.2476,-0.6027 -39.27617,-0.85751 -9.12431,0.37784 -20.06497,2.27877 -27.41133,-4.01749 -3.33662,-8.09886 4.24564,-15.79853 10.0625,-20.53125 19.89788,-16.30869 46.44066,-20.54833 67.6875,-34.28125 9.36776,-6.71036 17.84364,-15.93166 21.8125,-26.90625 1.89219,-5.66806 -3.19644,-11.04112 -8.96875,-10.0625 -15.10964,2.50845 -25.55279,15.42064 -36.50964,25.05232 -15.26739,14.35206 -30.59845,31.11717 -51.58411,36.44768 -11.59842,2.15299 -23.48286,-3.96647 -29.25,-14.15625 -14.26101,-20.555 -15.07619,-47.47497 -28.59375,-68.25 -3.05003,-3.88172 -7.35551,-8.12843 -12.71875,-7.59375 z"
         id="path4429"
         style="font-size:200px;letter-spacing:27.62999916px;fill:#302b22;fill-opacity:1;stroke:none" />
    </g>
  </g>
</svg>
