<?xml version="1.0" encoding="UTF-8" standalone="no"?>
<!-- Generator: Adobe Illustrator 16.0.0, SVG Export Plug-In . SVG Version: 6.00 Build 0)  -->

<svg
   xmlns:dc="http://purl.org/dc/elements/1.1/"
   xmlns:cc="http://creativecommons.org/ns#"
   xmlns:rdf="http://www.w3.org/1999/02/22-rdf-syntax-ns#"
   xmlns:svg="http://www.w3.org/2000/svg"
   xmlns="http://www.w3.org/2000/svg"
   xmlns:sodipodi="http://sodipodi.sourceforge.net/DTD/sodipodi-0.dtd"
   xmlns:inkscape="http://www.inkscape.org/namespaces/inkscape"
   version="1.1"
   id="Layer_1"
   x="0px"
   y="0px"
   width="185.14062"
   height="185.14258"
   viewBox="0 0 185.14062 185.14258"
   enable-background="new 0 0 585 150"
   xml:space="preserve"
   inkscape:version="0.91 r13725"
   sodipodi:docname="musicbrainz.svg"><defs
     id="defs7757" /><sodipodi:namedview
     pagecolor="#ffffff"
     bordercolor="#666666"
     borderopacity="1"
     objecttolerance="10"
     gridtolerance="10"
     guidetolerance="10"
     inkscape:pageopacity="0"
     inkscape:pageshadow="2"
     inkscape:window-width="1920"
     inkscape:window-height="1056"
     id="namedview7755"
     showgrid="false"
     fit-margin-top="0"
     fit-margin-left="0"
     fit-margin-right="0"
     fit-margin-bottom="0"
     inkscape:zoom="1.7454055"
     inkscape:cx="165.37301"
     inkscape:cy="26.179961"
     inkscape:window-x="0"
     inkscape:window-y="24"
     inkscape:window-maximized="1"
     inkscape:current-layer="g7663" /><metadata
     id="metadata7659"><sfw><slices /><sliceSourceBounds
         height="144"
         width="575.04"
         y="-589"
         x="2966"
         bottomLeftOrigin="true" /></sfw><rdf:RDF><cc:Work
         rdf:about=""><dc:format>image/svg+xml</dc:format><dc:type
           rdf:resource="http://purl.org/dc/dcmitype/StillImage" /><dc:title></dc:title></cc:Work></rdf:RDF></metadata><g
     id="g7661"
     transform="translate(4.5581094,26.165839)" /><g
     id="g7663"
     transform="translate(4.5581094,26.165839)"><path
       style="opacity:1;fill:#000000;fill-opacity:1;stroke:none;stroke-width:0.85799998;stroke-linecap:square;stroke-miterlimit:4;stroke-dasharray:none;stroke-dashoffset:0;stroke-opacity:1"
       d="M 83.658203,-18.703125 A 92.570984,92.570984 0 0 0 -8.9121094,73.869141 92.570984,92.570984 0 0 0 83.658203,166.43945 92.570984,92.570984 0 0 0 176.22852,73.869141 92.570984,92.570984 0 0 0 83.658203,-18.703125 Z m 2.632813,20.8515625 0.96289,0.5292969 C 87.7831,2.9683151 101.43355,10.792128 117.58789,20.064453 l 29.37109,16.859375 0.0508,36.964844 0.0508,36.966798 -30.26758,17.36523 c -16.6475,9.55157 -30.320577,17.36719 -30.384767,17.36719 -0.06419,0 -0.117187,-6.42511 -0.117187,-14.27734 l 0,-14.27539 0.558593,-0.11328 c 0.306376,-0.0622 1.376223,-0.37608 2.378907,-0.69727 2.552005,-0.81748 4.084585,-1.07873 5.80664,-0.99023 1.568062,0.0806 1.935206,0.22387 4.535156,1.76367 2.532468,1.49987 4.682938,1.51502 8.988278,0.0684 l 1.70508,-0.57227 0.97656,0.65625 c 2.68055,1.80388 6.33347,1.17719 8.30079,-1.42578 2.31896,-3.06821 1.30524,-7.44088 -2.15625,-9.30078 -1.19571,-0.64245 -4.29242,-0.63028 -5.51368,0.0215 -1.93207,1.03113 -3.26496,3.08768 -3.35156,5.17188 l -0.0469,1.11914 -1.79883,0.54297 c -0.9895,0.29795 -2.28538,0.59104 -2.87891,0.65234 -1.03244,0.10656 -1.16036,0.0629 -2.96094,-1.01562 -1.035096,-0.62001 -2.268693,-1.24007 -2.742183,-1.37696 -0.47349,-0.13689 -0.861328,-0.30851 -0.861328,-0.38281 0,-0.0744 0.237374,-0.35686 0.527343,-0.62695 1.844621,-1.71813 4.785088,-5.99829 6.498048,-9.45703 0.64742,-1.307254 1.26945,-2.443495 1.38086,-2.525395 0.11141,-0.08185 0.43046,-0.15225 0.70898,-0.15625 1.39036,-0.0207 3.52662,-1.630284 4.41797,-3.328125 0.46026,-0.876657 0.53906,-1.276409 0.53906,-2.748047 0,-1.476408 -0.0779,-1.869865 -0.54492,-2.759765 -1.8624,-3.548907 -6.60773,-4.47277 -9.57226,-1.863282 -2.571483,2.263505 -2.842852,6.150167 -0.60547,8.638672 l 0.91992,1.023438 -1.00586,2.005859 c -2.254029,4.491685 -5.821445,8.888075 -8.896484,10.962895 -1.357368,0.91585 -3.822209,2.12717 -4.748047,2.33398 l -0.558593,0.125 0,-20.890625 0,-20.890625 0.759765,0.132812 c 1.709609,0.298674 3.111959,1.226152 5.435547,3.597657 3.58171,3.655278 4.137305,3.836587 11.546872,3.773437 6.99772,-0.05964 7.99962,0.225795 11.79297,3.351563 3.4591,2.850345 8.32405,7.992736 10.09961,10.675781 l 0.48242,0.728516 -0.5625,1.197265 c -0.78324,1.672961 -0.78059,3.763693 0.006,5.289063 1.08427,2.103336 2.87084,3.294086 5.17774,3.453126 4.67212,0.32211 7.94266,-4.51451 5.92968,-8.769532 -1.06376,-2.248564 -3.37893,-3.645534 -5.79882,-3.496094 l -1.2168,0.07617 -1.35156,-1.830078 c -2.55771,-3.459879 -8.28192,-9.300494 -10.92383,-11.146485 -0.31889,-0.222818 -0.58199,-0.477166 -0.58399,-0.566406 -0.002,-0.08924 0.33808,-0.302789 0.75586,-0.474609 0.41779,-0.17182 1.65832,-0.865922 2.75586,-1.541016 2.10893,-1.297195 3.99505,-2.165828 4.72071,-2.173828 0.30338,-0.0033 0.59281,0.263515 0.95117,0.875 1.34613,2.297006 4.41734,3.322374 7.24804,2.419922 1.44728,-0.461407 3.20328,-2.169732 3.68555,-3.587891 1.32582,-3.898717 -1.11394,-7.881345 -5.11719,-8.355469 l -0.99804,-0.11914 -0.2461,-1.441407 c -0.32693,-1.921074 -0.33276,-6.357421 -0.0117,-8.15039 l 0.25782,-1.441407 1.20117,-0.109374 c 2.12394,-0.192592 4.26394,-1.934712 4.96289,-4.039063 0.73207,-2.204044 -0.005,-5.223451 -1.60352,-6.568359 -1.30589,-1.09884 -2.56118,-1.571166 -4.18359,-1.572266 -2.52715,-0.0018 -4.50319,1.227714 -5.61523,3.492188 -0.47078,0.958569 -0.55948,1.395947 -0.54688,2.666015 0.0166,1.68383 0.33499,2.630714 1.29883,3.847656 l 0.61328,0.771485 -0.35351,1.386718 c -0.49639,1.950833 -0.49637,9.208694 0,11.392579 l 0.33984,1.498047 -0.58399,0.666015 c -0.32172,0.366422 -0.69823,0.978569 -0.83593,1.359375 -0.23366,0.64618 -0.34896,0.715212 -1.72266,1.039063 -1.61146,0.3799 -3.85112,1.38166 -5.26367,2.353515 -1.47117,1.012196 -3.72761,1.973577 -5.4375,2.31836 -2.16931,0.437421 -14.368724,0.457547 -15.376954,0.02539 -0.35591,-0.152507 -1.468018,-1.119901 -2.470704,-2.15039 C 93.145424,69.42551 92.334735,68.772987 90.754066,68.025449 89.621202,67.48969 88.946414,67.29472 86.748207,66.871152 l -0.457031,-0.08789 0,-11.845703 0,-11.845703 0.6875,0 c 0.377625,0 1.41567,0.137625 2.30664,0.306641 5.291444,1.003768 9.92845,3.672474 13.224614,7.609374 l 0.83007,0.990235 -0.57422,1.167969 c -0.7637,1.555265 -0.81778,3.91177 -0.12304,5.320312 0.59652,1.209421 1.72548,2.342467 2.98242,2.994141 1.41124,0.731679 3.79233,0.756362 5.24023,0.05469 4.64915,-2.253048 4.78938,-8.75487 0.24024,-11.103515 -0.76852,-0.396771 -1.40969,-0.544322 -2.66016,-0.613282 l -1.64843,-0.08984 -0.73438,-0.962891 c -0.4037,-0.529375 -1.5146,-1.712885 -2.46875,-2.628906 -0.95415,-0.916022 -1.70602,-1.692373 -1.66992,-1.726563 0.0361,-0.03419 0.6213,-0.28632 1.29883,-0.560547 1.67476,-0.677846 3.36787,-1.791168 4.79492,-3.152343 l 1.18945,-1.136719 1.75977,-0.0059 c 2.03439,-0.0082 3.23534,-0.471671 4.49414,-1.730469 2.93209,-2.932091 2.12304,-8.045704 -1.5586,-9.853516 -1.0168,-0.499288 -1.41005,-0.578019 -2.89843,-0.574219 -1.88002,0.0048 -2.77473,0.333788 -4.10743,1.503907 -1.82742,1.604507 -2.46446,4.499685 -1.50976,6.863281 l 0.50976,1.257812 -1.12304,1 C 102.78357,39.795029 99.58781,41.0555 97.0625,41.0625 96.38183,41.0643 95.366987,40.849324 94.316406,40.478516 92.475389,39.828718 89.510054,39.152194 87.558594,38.9375 l -1.267578,-0.138672 0,-18.326172 0,-18.3242185 z m -5.451172,0.058594 c 0.10992,-0.04011 0.18354,3.5380324 0.18164,8.8124995 l -0.002,8.878907 L 64.648438,29.875 c -9.003657,5.487585 -16.562695,10.181649 -16.796876,10.431641 -0.23418,0.249995 -0.521794,0.711761 -0.640624,1.02539 -0.148858,0.392868 -0.216797,8.473173 -0.216797,25.978516 l 0,25.408203 -1.265625,0.0039 c -5.402827,0.01278 -10.529613,4.153468 -11.628907,9.39257 -1.092394,5.20623 2.463451,9.18004 7.84375,8.76758 4.229216,-0.32422 9.791397,-3.93394 11.757813,-7.63086 l 0.484375,-0.91015 0.101562,-12.246093 0.101563,-12.246094 12.558594,-7.443359 c 6.907375,-4.094467 12.900574,-7.637949 13.318359,-7.873047 l 0.759766,-0.425781 0,41.740234 c 0,22.95744 -0.06919,41.74023 -0.154297,41.74023 -0.08511,0 -13.758487,-7.80424 -30.384766,-17.34375 l -30.230469,-17.3457 0.0039,-36.992186 0.0039,-36.992188 L 50.458984,19.59375 C 67.06654,10.068257 80.738072,2.2441673 80.839844,2.2070312 Z M 111.18945,31.419922 c 0.10776,0.0021 0.21318,0.0156 0.31446,0.04102 0.89863,0.225543 1.52539,1.055624 1.52539,2.019531 0,0.71824 -0.1061,0.953688 -0.62305,1.388672 -0.84576,0.711656 -1.96629,0.717303 -2.67187,0.01172 -0.68618,-0.686181 -0.82551,-1.358715 -0.4629,-2.226562 0.29949,-0.716768 1.16367,-1.2489 1.91797,-1.234375 z m -30.265622,11.685547 0.05273,5.80664 c 0.04151,4.478604 -0.0034,5.86195 -0.201171,6.046875 -0.250286,0.234049 -26.272064,15.681641 -26.416016,15.681641 -0.03998,0 -0.07227,-2.500045 -0.07227,-5.554687 0,-3.054644 -0.04511,-5.673892 -0.09961,-5.822266 -0.06675,-0.181697 4.281235,-2.864643 13.318359,-8.214844 l 13.417969,-7.943359 z m 50.251952,2.242187 c 1.2212,-0.143308 2.49066,0.885851 2.22852,2.283203 -0.2332,1.243057 -1.84169,2.09747 -2.85352,1.515625 -1.2548,-0.721566 -1.50163,-2.254223 -0.52148,-3.234375 0.33807,-0.33807 0.73941,-0.516683 1.14648,-0.564453 z m -23.07812,8.544922 c 0.3242,-0.01729 0.67011,0.04813 1.01562,0.212891 1.33208,0.635227 1.55582,2.325239 0.4336,3.269531 -0.79986,0.673026 -1.76323,0.664213 -2.57813,-0.02148 -0.52425,-0.441128 -0.62305,-0.666416 -0.62305,-1.425782 0,-1.176453 0.77934,-1.983291 1.75196,-2.035156 z m 23.35937,14.923828 c 1.8897,0 2.71804,2.379256 1.20899,3.472656 -0.7335,0.53147 -1.43114,0.618122 -2.13868,0.263672 -1.8737,-0.938641 -1.17742,-3.736328 0.92969,-3.736328 z m -26.1875,21.574219 c 0.7435,0 0.9961,0.102878 1.39649,0.568359 1.54198,1.792655 -0.76122,4.42571 -2.60352,2.976563 -0.6576,-0.517272 -0.939,-1.347686 -0.72656,-2.144531 0.25306,-0.949171 0.87739,-1.400391 1.93359,-1.400391 z m 26.06445,4.759766 c 1.00635,0 1.60085,0.366785 1.94727,1.203125 C 133.82844,97.674537 132.88077,99 131.38867,99 c -0.75936,0 -0.9866,-0.10077 -1.42773,-0.625 -0.33555,-0.39878 -0.52344,-0.867031 -0.52344,-1.300781 0,-0.433758 0.18789,-0.901998 0.52344,-1.300781 0.43189,-0.513269 0.67429,-0.623047 1.37304,-0.623047 z M 114.65039,110 c 0.5094,0 1.01959,0.23517 1.43945,0.70508 0.32283,0.36131 0.58594,0.88974 0.58594,1.17383 0,1.85617 -2.169,2.80754 -3.45898,1.51757 -0.80674,-0.80674 -0.80948,-1.79215 -0.006,-2.6914 C 113.63081,110.23517 114.14099,110 114.65039,110 Z"
       transform="translate(4.354,-7.4627143)"
       id="path4302"
       inkscape:connector-curvature="0" /></g></svg>