<?xml version="1.0" encoding="UTF-8" standalone="no"?>
<svg
   xmlns:dc="http://purl.org/dc/elements/1.1/"
   xmlns:cc="http://creativecommons.org/ns#"
   xmlns:rdf="http://www.w3.org/1999/02/22-rdf-syntax-ns#"
   xmlns:svg="http://www.w3.org/2000/svg"
   xmlns="http://www.w3.org/2000/svg"
   xmlns:sodipodi="http://sodipodi.sourceforge.net/DTD/sodipodi-0.dtd"
   xmlns:inkscape="http://www.inkscape.org/namespaces/inkscape"
   height="28.621094"
   viewBox="0 0 28.619141 28.621094"
   width="28.619141"
   id="svg2"
   version="1.1"
   inkscape:version="0.91 r13725"
   sodipodi:docname="search.svg"
   style="fill:#000000">
  <metadata
     id="metadata12">
    <rdf:RDF>
      <cc:Work
         rdf:about="">
        <dc:format>image/svg+xml</dc:format>
        <dc:type
           rdf:resource="http://purl.org/dc/dcmitype/StillImage" />
        <dc:title></dc:title>
      </cc:Work>
    </rdf:RDF>
  </metadata>
  <defs
     id="defs10" />
  <sodipodi:namedview
     pagecolor="#ffffff"
     bordercolor="#666666"
     borderopacity="1"
     objecttolerance="10"
     gridtolerance="10"
     guidetolerance="10"
     inkscape:pageopacity="0"
     inkscape:pageshadow="2"
     inkscape:window-width="1920"
     inkscape:window-height="1056"
     id="namedview8"
     showgrid="false"
     fit-margin-top="0"
     fit-margin-left="0"
     fit-margin-right="0"
     fit-margin-bottom="0"
     inkscape:zoom="9.8333333"
     inkscape:cx="18.117626"
     inkscape:cy="10.076936"
     inkscape:window-x="0"
     inkscape:window-y="24"
     inkscape:window-maximized="1"
     inkscape:current-layer="svg2" />
  <path
     style="opacity:1;fill:#000000;fill-opacity:1;stroke:none;stroke-width:0.85799998;stroke-linecap:square;stroke-miterlimit:4;stroke-dasharray:none;stroke-dashoffset:0;stroke-opacity:1"
     d="M 14.308594,1.3588261e-8 A 14.309923,14.309923 0 0 0 1.3612159e-8,14.310547 14.309923,14.309923 0 0 0 14.308594,28.621094 14.309923,14.309923 0 0 0 28.61914,14.310547 14.309923,14.309923 0 0 0 14.308594,1.3588261e-8 Z M 12.064453,5.5644531 c 3.589999,0 6.5,2.91 6.5,6.4999999 0,1.61 -0.590313,3.090469 -1.570313,4.230469 l 0.279297,0.269531 0.791016,0 4.990234,5 -1.490234,1.490234 -5,-4.990234 0,-0.789062 -0.269532,-0.279297 c -1.14,0.98 -2.620468,1.568359 -4.230468,1.568359 -3.5899998,0 -6.4999998,-2.91 -6.4999998,-6.5 0,-3.5899999 2.91,-6.4999999 6.4999998,-6.4999999 z m 0,2 c -2.4899999,0 -4.4999998,2.01 -4.4999998,4.4999999 0,2.49 2.0099999,4.5 4.4999998,4.5 2.489999,0 4.5,-2.01 4.5,-4.5 0,-2.4899999 -2.010001,-4.4999999 -4.5,-4.4999999 z"
     id="path4140"
     inkscape:connector-curvature="0" />
  <path
     d="m 4.3496094,2.2832031 23.9999996,0 0,23.9999999 -23.9999996,0 z"
     id="path6"
     inkscape:connector-curvature="0"
     style="fill:none" />
</svg>
