<?xml version="1.0" encoding="UTF-8" standalone="no"?>
<!-- Created with Inkscape (http://www.inkscape.org/) -->

<svg
   xmlns:dc="http://purl.org/dc/elements/1.1/"
   xmlns:cc="http://creativecommons.org/ns#"
   xmlns:rdf="http://www.w3.org/1999/02/22-rdf-syntax-ns#"
   xmlns:svg="http://www.w3.org/2000/svg"
   xmlns="http://www.w3.org/2000/svg"
   version="1.1"
   width="189.44507mm"
   height="151.67252mm"
   viewBox="0 0 671.26205 537.4223"
   id="yolk_icon">
  <defs
     id="defs4" />
  <metadata
     id="metadata7">
    <rdf:RDF>
      <cc:Work
         rdf:about="">
        <dc:format>image/svg+xml</dc:format>
        <dc:type
           rdf:resource="http://purl.org/dc/dcmitype/StillImage" />
        <dc:title></dc:title>
      </cc:Work>
    </rdf:RDF>
  </metadata>
  <g
     transform="translate(-46.485878,-162.06567)"
     id="g5"
     style="display:inline">
    <path
       d="m 144.60303,291.48328 -33.01959,-99.05877 c 0,0 9.10886,-105.890411 13.66328,-111.583444 4.55443,-5.693032 61.48476,-40.989836 66.03918,-42.128443 4.55443,-1.138606 85.3955,-29.6037707 85.3955,-29.6037707 l 76.28664,0 42.12844,6.8316397 51.2373,14.801885 69.455,58.068935 45.54426,99.058768 -55.79172,117.27648 -89.94992,44.40566 -174.20681,17.0791 z"
       transform="translate(46.485878,162.06566)"
       id="yolk_yolk" />
    <path
       d="m 365.23242,162.06836 c -22.38156,-0.0817 -44.60718,1.6938 -66.22656,5.40039 -74.71985,12.81053 -151.21565,51.25318 -199,110.10742 -37.52786,46.22169 -58.438941,111.47077 -52.529298,170.71485 6.655086,66.71713 45.555453,132.56921 95.964848,176.77734 50.16469,43.99353 120.48829,65.07129 186.8789,71.7207 80.37165,8.04969 168.39002,-0.92977 238.95703,-40.23242 60.78354,-33.85371 113.54203,-91.54986 137.83008,-156.74805 14.57604,-39.12753 14.11767,-86.3409 -1.01172,-125.25781 C 679.48805,306.10867 623.00378,246.20875 558.61523,210.9043 500.91501,179.26708 432.3771,162.3133 365.23242,162.06836 z m 19.3457,13.4082 c 29.81019,0.2077 60.34267,4.4466 87.11329,16.89844 29.50482,13.7236 57.75517,35.25137 74.38281,63.22266 16.30547,27.42932 22.3869,61.91035 19.61133,93.69922 -2.99672,34.32173 -15.29892,70.39113 -38.38672,95.96289 -26.74657,29.62417 -66.59332,49.64246 -106.06445,55.55859 -52.51028,7.8705 -110.4111,-3.05864 -156.57422,-29.29297 -32.77196,-18.62419 -61.59074,-49.53151 -74.75196,-84.85351 -13.28561,-35.65583 -13.23283,-78.86202 1.00977,-114.14649 12.19235,-30.2052 38.91777,-54.79542 67.21094,-70.93555 33.77596,-19.26784 74.86166,-24.83715 113.73047,-25.96875 4.21604,-0.12274 8.46015,-0.1742 12.71874,-0.14453 z m -9.30664,36.35547 a 17.76161,9.3015823 0 0 0 -17.76171,9.30078 17.76161,9.3015823 0 0 0 17.76171,9.30078 17.76161,9.3015823 0 0 0 17.76172,-9.30078 17.76161,9.3015823 0 0 0 -17.76172,-9.30078 z m -45.20507,3.2832 a 17.76161,9.3015823 0 0 0 -17.75977,9.30079 17.76161,9.3015823 0 0 0 17.75977,9.30078 17.76161,9.3015823 0 0 0 17.76171,-9.30078 17.76161,9.3015823 0 0 0 -17.76171,-9.30079 z m 75.41797,14.45508 a 14.771621,9.7208586 14.75232 0 0 -11.41407,6.36328 14.771621,9.7208586 14.75232 0 0 11.8086,13.16211 14.771621,9.7208586 14.75232 0 0 16.75976,-5.64062 14.771621,9.7208586 14.75232 0 0 -11.80859,-13.16016 14.771621,9.7208586 14.75232 0 0 -5.3457,-0.72461 z m -44.60743,6.40039 a 27.714916,22.032808 0 0 0 -27.71484,22.03321 27.714916,22.032808 0 0 0 27.71484,22.0332 27.714916,22.032808 0 0 0 27.71485,-22.0332 27.714916,22.032808 0 0 0 -27.71485,-22.03321 z m -48.94336,3.78321 a 8.0335493,13.084312 78.93068 0 0 -3.86328,0.39062 8.0335493,13.084312 78.93068 0 0 -11.29883,10.39649 8.0335493,13.084312 78.93068 0 0 14.38282,5.37109 8.0335493,13.084312 78.93068 0 0 11.29882,-10.39649 8.0335493,13.084312 78.93068 0 0 -10.51953,-5.76171 z m 101.0918,19.06445 a 15.347627,11.307016 0 0 0 -15.34766,11.30664 15.347627,11.307016 0 0 0 15.34766,11.30664 15.347627,11.307016 0 0 0 15.34766,-11.30664 15.347627,11.307016 0 0 0 -15.34766,-11.30664 z m -99.55664,6.03906 a 9.6572794,16.03509 79.407457 0 0 -4.73828,0.46875 9.6572794,16.03509 79.407457 0 0 -13.85742,12.48828 9.6572794,16.03509 79.407457 0 0 17.64062,6.45313 9.6572794,16.03509 79.407457 0 0 13.85742,-12.48828 9.6572794,16.03509 79.407457 0 0 -12.90234,-6.92188 z"
       id="yolk_white" />
  </g>
</svg>
