<?xml version="1.0" encoding="UTF-8" standalone="no"?>
<!-- Created with Inkscape (http://www.inkscape.org/) -->

<svg
   xmlns:dc="http://purl.org/dc/elements/1.1/"
   xmlns:cc="http://creativecommons.org/ns#"
   xmlns:rdf="http://www.w3.org/1999/02/22-rdf-syntax-ns#"
   xmlns:svg="http://www.w3.org/2000/svg"
   xmlns="http://www.w3.org/2000/svg"
   version="1.1"
   width="784.3067"
   height="586.81708"
   viewBox="0 0 784.30673 586.81708"
   id="yolk_icon">
  <defs
     id="defs4" />
  <metadata
     id="metadata7">
    <rdf:RDF>
      <cc:Work
         rdf:about="">
        <dc:format>image/svg+xml</dc:format>
        <dc:type
           rdf:resource="http://purl.org/dc/dcmitype/StillImage" />
        <dc:title></dc:title>
      </cc:Work>
    </rdf:RDF>
  </metadata>
  <g
     transform="translate(-813.05057,343.31695)"
     style="display:inline">
    <path
       d="M 1087.3984,243.15351 C 961.68464,240.4462 837.17364,146.57969 819.29564,18.579372 c -16.315,-95.13306 -2.5519,-202.921182 63.8109,-277.070642 62.7032,-66.92262 158.81956,-87.39552 247.31356,-84.57436 143.7056,2.62972 286.9556,57.3181 394.5616,152.7785 48.8673,43.6116 88.5294,112.145202 65.7987,178.911112 -28.5029,86.55541 -108.4834,142.267178 -185.465,183.284528 -97.605,50.28538 -208.2156,74.84983 -317.917,71.245 z"
       class='white'
       style="fill:#000000;stroke:none" />
    <path
       d="m 1726.1696,432.75717 a 98.224205,98.224205 0 1 1 -196.4484,0 98.224205,98.224205 0 1 1 196.4484,0 z"
       transform="matrix(2.1311476,0,0,1.8852459,-2366.5934,-944.02545)"
       class='yellow'
       style="fill:#ffffff;stroke:none" />
    <g
       transform="translate(-17.712562,1.6102329)"
       class='white'>
      <path
         d="m 1064.2013,-268.41775 c -4.4742,1.26514 -8.6483,3.48703 -11.3437,6.03846 -2.6955,2.55142 -3.8793,5.40099 -3.2172,7.74425 0.663,2.34304 3.1637,4.15076 6.7961,4.9129 3.6324,0.76214 8.3519,0.46929 12.8262,-0.79588 4.4744,-1.26516 8.6484,-3.48705 11.3439,-6.03849 2.6954,-2.55142 3.8792,-5.40099 3.2171,-7.74425 -0.663,-2.34304 -3.1637,-4.15076 -6.7961,-4.9129 -3.6324,-0.76214 -8.3519,-0.4693 -12.8263,0.79591 z"
         id="path3110-6"
         style="display:inline" />
      <path
         d="m 1021.5952,-252.95843 c -4.4739,1.26531 -8.6474,3.48718 -11.3425,6.03848 -2.6952,2.55132 -3.8787,5.40062 -3.2165,7.74373 0.6629,2.34287 3.1632,4.15052 6.7953,4.91274 3.632,0.76222 8.351,0.46963 12.8251,-0.79521 4.4743,-1.26514 8.6483,-3.48703 11.3438,-6.03849 2.6955,-2.55142 3.8792,-5.40096 3.2171,-7.74422 -0.663,-2.34305 -3.1636,-4.15079 -6.796,-4.91294 -3.6324,-0.76213 -8.352,-0.46926 -12.8263,0.79591 z"
         id="path3108-7"
         style="display:inline" />
      <path
         d="m 1098.1008,-259.56947 c -5.48,1.50859 -9.3225,5.34149 -9.252,9.22888 0.046,2.5445 1.6832,5.04457 4.4497,6.79441 2.7665,1.74985 6.6282,2.7279 10.4947,2.65806 3.8669,-0.0701 7.6908,-1.18735 10.3923,-3.03632 2.7015,-1.84904 4.247,-4.40698 4.2003,-6.95166 -0.047,-2.54411 -1.6841,-5.04361 -4.4504,-6.79307 -2.7663,-1.74945 -6.6273,-2.72729 -10.4934,-2.65752 -1.8259,0.0329 -3.6472,0.29111 -5.3412,0.75726 z"
         id="path3106-5"
         style="display:inline" />
      <path
         d="m 1056.9179,-241.27317 c -6.982,1.97428 -13.275,6.22138 -17.1022,11.5423 -3.8272,5.32091 -5.1414,11.65007 -3.5718,17.20064 1.5694,5.55063 6.0033,10.2544 12.0502,12.7833 6.0468,2.52891 13.6319,2.85182 20.614,0.87758 6.982,-1.97426 13.275,-6.2214 17.1023,-11.54232 3.8271,-5.32088 5.1414,-11.65006 3.5718,-17.20063 -1.5694,-5.55063 -6.0034,-10.25438 -12.0502,-12.78331 -6.0468,-2.52891 -13.6321,-2.8518 -20.6141,-0.87756 z"
         id="path3104-3"
         style="display:inline" />
      <path
         d="m 1010.8506,-224.31553 c -1.2224,0.35292 -2.4442,0.83589 -3.6113,1.42706 -3.0561,1.54758 -5.7022,3.85807 -7.1913,6.27922 -1.48897,2.4211 -1.80265,4.92302 -0.85236,6.79935 0.95036,1.87597 3.15276,3.10334 5.98536,3.33564 2.8326,0.23232 6.2605,-0.53326 9.3162,-2.08066 3.0561,-1.54756 5.7022,-3.85808 7.1912,-6.27919 1.4891,-2.42113 1.8028,-4.92306 0.8525,-6.79938 -1.5377,-3.03559 -6.5125,-4.17694 -11.6903,-2.68204 z"
         id="path3102-5"
         style="display:inline" />
      <path
         d="m 1113.3156,-233.47681 c -3.8664,1.09326 -7.3773,3.35233 -9.5418,6.13951 -2.1644,2.78715 -2.9557,6.0681 -2.1504,8.91655 0.8055,2.8484 3.1978,5.22916 6.5012,6.47022 3.3035,1.24103 7.4775,1.3271 11.3439,0.23382 3.8663,-1.09324 7.3773,-3.35233 9.5417,-6.13948 2.1645,-2.78717 2.9557,-6.0681 2.1504,-8.91655 -0.8055,-2.8484 -3.1977,-5.22919 -6.5012,-6.47022 -3.3034,-1.24106 -7.4775,-1.3271 -11.3438,-0.23385 z"
         id="path3100-6"
         style="display:inline" />
      <path
         d="m 1019.1583,-200.57685 c -1.4993,0.43225 -2.9987,1.02147 -4.432,1.74033 -3.7524,1.88193 -7.008,4.67908 -8.8474,7.60169 -1.8395,2.92261 -2.2403,5.93472 -1.0892,8.18593 1.1512,2.25124 3.8401,3.71384 7.3075,3.97484 3.4676,0.26096 7.6709,-0.68289 11.4234,-2.56508 3.7525,-1.88196 7.008,-4.67911 8.8475,-7.60172 1.8395,-2.92261 2.2402,-5.93472 1.0892,-8.18593 -1.8627,-3.64258 -7.948,-4.98316 -14.299,-3.15006 z"
         id="yolk_white-2"
         style="display:inline" />
    </g>
  </g>
</svg>
