<?xml version="1.0" encoding="UTF-8" standalone="no"?>
<!-- Created with Inkscape (http://www.inkscape.org/) -->

<svg
   xmlns:dc="http://purl.org/dc/elements/1.1/"
   xmlns:cc="http://creativecommons.org/ns#"
   xmlns:rdf="http://www.w3.org/1999/02/22-rdf-syntax-ns#"
   xmlns:svg="http://www.w3.org/2000/svg"
   xmlns="http://www.w3.org/2000/svg"
   xmlns:sodipodi="http://sodipodi.sourceforge.net/DTD/sodipodi-0.dtd"
   xmlns:inkscape="http://www.inkscape.org/namespaces/inkscape"
   id="svg4317"
   version="1.1"
   inkscape:version="0.91 r13725"
   width="656.76953"
   height="656.76953"
   viewBox="0 0 656.76953 656.76953"
   sodipodi:docname="youtube.svg">
  <metadata
     id="metadata4323">
    <rdf:RDF>
      <cc:Work
         rdf:about="">
        <dc:format>image/svg+xml</dc:format>
        <dc:type
           rdf:resource="http://purl.org/dc/dcmitype/StillImage" />
        <dc:title></dc:title>
      </cc:Work>
    </rdf:RDF>
  </metadata>
  <defs
     id="defs4321" />
  <sodipodi:namedview
     pagecolor="#ffffff"
     bordercolor="#666666"
     borderopacity="1"
     objecttolerance="10"
     gridtolerance="10"
     guidetolerance="10"
     inkscape:pageopacity="0"
     inkscape:pageshadow="2"
     inkscape:window-width="1920"
     inkscape:window-height="1056"
     id="namedview4319"
     showgrid="false"
     fit-margin-top="0"
     fit-margin-left="0"
     fit-margin-right="0"
     fit-margin-bottom="0"
     inkscape:zoom="0.7375"
     inkscape:cx="659.11072"
     inkscape:cy="307.79048"
     inkscape:window-x="0"
     inkscape:window-y="24"
     inkscape:window-maximized="1"
     inkscape:current-layer="g4885" />
  <g
     id="g4885"
     transform="translate(-167.41993,150.6875)">
    <path
       style="opacity:1;fill:#000000;fill-opacity:1;stroke:none;stroke-width:0.85799998;stroke-linecap:square;stroke-miterlimit:4;stroke-dasharray:none;stroke-dashoffset:0;stroke-opacity:1"
       d="M 513.43164,-69.332031 A 328.38519,328.38519 0 0 0 185.04688,259.05273 328.38519,328.38519 0 0 0 513.43164,587.4375 328.38519,328.38519 0 0 0 841.81641,259.05273 328.38519,328.38519 0 0 0 513.43164,-69.332031 Z m -116.875,78.8378904 26.25,0 17.54492,65.8457026 17.45508,-65.8457026 26.25,0 -31.25,100.0000006 0,68.75 -25,0 0,-68.75 c 0,0 -25.90577,-84.288751 -31.25,-100.0000006 z m 116.25,41.5800786 c 10,0 19.9225,3.534921 26.25,12.169921 4.79,6.3775 7.5,16.50875 7.5,30 l 0,45.000001 c 0,13.41613 -2.21,22.68707 -7,29.00195 -6.32625,8.60887 -16.75,13.16992 -26.75,13.16992 -10,0 -20.24267,-4.56105 -26.56055,-13.16992 -4.86625,-6.31488 -7.18945,-15.58582 -7.18945,-29.00195 l 0.0234,-44.890626 c 0,-13.49125 2.61031,-23.731875 7.47656,-30.109375 6.31788,-8.635 14.93112,-12.169922 26.25,-12.169921 z m 51.25,0.919921 23.75,0 0,93.750001 0,8.75 c 0.55375,3.50888 2.04445,4.79102 5.06445,4.79102 4.54625,0 8.6593,-3.95114 13.68555,-11.04102 l 0,-96.250001 23.75,0 0,126.250001 -23.75,0 0,-13.75 c -9.00375,10.31988 -16.63508,15.5332 -24.95508,15.5332 -7.3,0 -12.36945,-3.44488 -14.9082,-9.66601 -1.5425,-3.78375 -2.63672,-9.68994 -2.63672,-18.36719 l 0,-100.000001 z m -51.25,20.390625 c -7.375,0 -11.25,5.859375 -10,18.359375 l 0,50.000001 c -1.25,12.5 2.62305,18.70312 9.99805,18.70312 7.375,0 11.25195,-6.20312 10.00195,-18.70312 l 0.0137,-50.000001 c 1.25,-12.5 -2.63867,-18.359375 -10.01367,-18.359375 z m 0.54297,138.855466 0.16406,0 c 0,0 78.35078,0.001 130.58203,3.75977 7.295,0.865 23.20594,0.93953 37.39844,15.73828 11.19125,11.27625 14.83984,36.88281 14.83984,36.88281 0,0 3.72657,30.06938 3.72657,60.14063 l 0,28.18945 c 0,30.06788 -3.72657,60.13672 -3.72657,60.13672 0,0 -3.64859,25.60556 -14.83984,36.88281 -14.1925,14.80229 -30.10344,14.87452 -37.39844,15.74219 -52.23125,3.75586 -130.66406,3.875 -130.66406,3.875 0,0 -97.04695,-0.88282 -126.9082,-3.73633 -8.305,-1.5503 -26.96,-1.07857 -41.15625,-15.88086 -11.1925,-11.27725 -14.83399,-36.88281 -14.83399,-36.88281 0,0 -3.73242,-30.06884 -3.73242,-60.13672 l 0,-28.18945 c 0,-30.07125 3.73242,-60.14063 3.73242,-60.14063 0,0 3.64149,-25.60656 14.83399,-36.88281 14.19625,-14.79875 30.10289,-14.87328 37.40039,-15.73828 52.23125,-3.75877 130.58203,-3.75977 130.58203,-3.75977 z m -77.06641,43.9961 -78.75,0.0254 0,23.72461 26.25,0 0,143.75 25,0 0,-143.75 27.5,0 0,-23.75 z m 81.25,0 0,167.5 22.5,0 0.0312,-12.58594 c 7.56125,9.355 15.80532,14.19727 23.85157,14.19727 9.01125,0 15.59718,-4.82421 18.61718,-14.11133 1.51125,-5.29538 2.5,-13.44774 2.5,-25 l 0,-50 c 0,-11.83125 -1.51609,-19.91961 -3.02734,-24.94336 -3.02,-9.35625 -9.07859,-14.5625 -18.08984,-14.5625 -8.325,0 -16.60016,5.12023 -23.91016,14.11523 l 0.0273,-54.60937 -22.5,0 z m 117.22071,40.68945 c -11.5525,0 -20.56439,4.52477 -27.10938,13.07227 -4.80751,6.3175 -7.61133,16.63828 -7.61133,29.98828 l 0,43.75 c 0,13.2735 3.08313,22.5664 7.89063,28.8164 6.5425,8.53513 15.55383,12.79493 27.39258,12.79493 11.82375,0 21.10914,-4.47127 27.36914,-13.54102 2.75125,-4.004 4.52922,-8.54247 5.29297,-13.55859 0.20375,-2.26613 0.80468,-7.42624 0.80468,-14.71875 l 0,-3.54297 -23.75,0 c 0,9.07963 0.0401,14.47756 -0.16992,15.71093 -1.29125,6.04888 -4.53812,9.07813 -10.10937,9.07813 -7.7675,0 -11.04821,-5.80668 -10.97071,-17.3418 l 0,-22.44726 45.04297,0 -0.006,-25.55469 c 0,-13.35 -2.62812,-23.11609 -7.35937,-29.43359 -6.34375,-8.5475 -15.35453,-13.07227 -26.70703,-13.07227 z m -202.22071,1.81055 0,98.75 c 0,8.67725 1.09227,14.58343 2.63477,18.36718 2.53875,6.22113 7.6082,9.66407 14.9082,9.66407 8.32,0 15.95328,-5.21137 24.95703,-15.53125 l 0,13.75 23.75,0 0,-125 -23.75,0 0,95 c -5.02625,7.08988 -9.14125,11.03906 -13.6875,11.03906 -3.02,0 -4.50875,-1.28018 -5.0625,-4.78906 l 0,-8.75 0,-92.5 -23.75,0 z m 119.27735,18.83007 c 6.52625,0 9.47265,3.66993 9.47265,16.16993 l 0,53.75 c 0,12.5 -2.9464,17.28906 -9.47265,17.28906 -3.72625,0 -8.01969,-1.91692 -11.80469,-5.70117 l 0.0273,-75.80664 c 3.78375,-3.735 8.0511,-5.70118 11.77735,-5.70118 z m 82.73242,0 c 7.5025,0 10.49023,3.47165 10.49023,15.0254 l 0,13.64453 -21.25,0.0234 0,-13.82421 c 0,-11.6825 3.20227,-14.86915 10.75977,-14.86915 z"
       transform="translate(-17.626953,-81.355469)"
       id="path4169"
       inkscape:connector-curvature="0" />
  </g>
</svg>
