<?xml version="1.0" encoding="UTF-8" standalone="no"?>
<svg
   xmlns:dc="http://purl.org/dc/elements/1.1/"
   xmlns:cc="http://creativecommons.org/ns#"
   xmlns:rdf="http://www.w3.org/1999/02/22-rdf-syntax-ns#"
   xmlns:svg="http://www.w3.org/2000/svg"
   xmlns="http://www.w3.org/2000/svg"
   xmlns:sodipodi="http://sodipodi.sourceforge.net/DTD/sodipodi-0.dtd"
   xmlns:inkscape="http://www.inkscape.org/namespaces/inkscape"
   version="1.1"
   x="0px"
   y="0px"
   width="731.35938"
   height="731.36133"
   viewBox="0 0 731.35939 731.3613"
   enable-background="new 0 0 599.998 583.111"
   xml:space="preserve"
   id="svg2"
   inkscape:version="0.91 r13725"
   sodipodi:docname="internetarchive.svg"><metadata
     id="metadata59"><rdf:RDF><cc:Work
         rdf:about=""><dc:format>image/svg+xml</dc:format><dc:type
           rdf:resource="http://purl.org/dc/dcmitype/StillImage" /><dc:title></dc:title></cc:Work></rdf:RDF></metadata><defs
     id="defs57" /><sodipodi:namedview
     pagecolor="#ffffff"
     bordercolor="#666666"
     borderopacity="1"
     objecttolerance="10"
     gridtolerance="10"
     guidetolerance="10"
     inkscape:pageopacity="0"
     inkscape:pageshadow="2"
     inkscape:window-width="1920"
     inkscape:window-height="1056"
     id="namedview55"
     showgrid="false"
     fit-margin-top="0"
     fit-margin-left="0"
     fit-margin-right="0"
     fit-margin-bottom="0"
     inkscape:zoom="0.40472567"
     inkscape:cx="576.20221"
     inkscape:cy="252.7755"
     inkscape:window-x="0"
     inkscape:window-y="24"
     inkscape:window-maximized="1"
     inkscape:current-layer="svg2" /><path
     style="opacity:1;fill:#000000;fill-opacity:1;stroke:none;stroke-width:0.85799998;stroke-linecap:square;stroke-miterlimit:4;stroke-dasharray:none;stroke-dashoffset:0;stroke-opacity:1"
     d="M 365.67969,-1.5258789e-5 A 365.67978,365.67978 0 0 0 0,365.68162 365.67978,365.67978 0 0 0 365.67969,731.3613 365.67978,365.67978 0 0 0 731.35938,365.68162 365.67978,365.67978 0 0 0 365.67969,-1.5258789e-5 Z M 362.54883,126.291 l 203.49219,47.58593 -11.6875,12.93946 -191.80469,0 -191.80469,0 -11.6875,-12.93946 203.49219,-47.58593 z m -194.30859,73.04882 388.61718,0 0,41.74219 -388.61718,0 0,-41.74219 z m 32.11328,50.35547 c 5.747,0.009 11.46911,0.59298 17.16211,1.83398 1.382,0.302 2.08892,0.66213 2.16992,2.32813 0.939,19.296 2.18345,38.57886 2.93945,57.88086 0.803,20.486 1.33297,40.98633 1.66797,61.48633 0.238,14.528 0.0903,29.0676 -0.13867,43.5996 -0.254,16.121 -0.61263,32.24452 -1.26563,48.35352 -0.7,17.288 -1.78146,34.56284 -2.73046,51.83984 -0.182,3.31 -0.5203,6.61402 -0.7793,9.83204 -6.38,1.65998 -12.70439,2.61826 -19.02539,2.69726 -6.321,-0.079 -12.64444,-1.03726 -19.02344,-2.69726 -0.259,-3.21801 -0.59925,-6.52104 -0.78125,-9.83204 -0.949,-17.277 -2.03047,-34.55184 -2.73047,-51.83984 -0.653,-16.109 -1.01162,-32.23252 -1.26562,-48.35352 -0.23,-14.532 -0.37567,-29.0716 -0.13867,-43.5996 0.334,-20.50001 0.86496,-41.00033 1.66796,-61.48633 0.756,-19.302 2.00046,-38.58486 2.93946,-57.88086 0.081,-1.666 0.78597,-2.02713 2.16797,-2.32813 5.693,-1.241 11.41706,-1.82498 17.16406,-1.83398 z m 105.81055,0 c 5.74599,0.009 11.4701,0.59298 17.1621,1.83398 1.383,0.302 2.08893,0.66213 2.16993,2.32813 0.938,19.296 2.1805,38.57886 2.9375,57.88086 0.803,20.486 1.33492,40.98633 1.66992,61.48633 0.237,14.528 0.0904,29.0676 -0.14063,43.5996 -0.255,16.121 -0.61262,32.24452 -1.26562,48.35352 -0.7,17.288 -1.78247,34.56284 -2.73047,51.83984 -0.182,3.31 -0.5213,6.61402 -0.7793,9.83204 -6.38,1.65998 -12.70244,2.61826 -19.02343,2.69726 -6.32001,-0.079 -12.6454,-1.03726 -19.0254,-2.69726 -0.258,-3.21801 -0.59729,-6.52104 -0.77929,-9.83204 -0.949,-17.277 -2.02947,-34.55184 -2.73047,-51.83984 -0.653,-16.109 -1.01063,-32.23252 -1.26563,-48.35352 -0.229,-14.532 -0.37567,-29.0716 -0.13867,-43.5996 0.334,-20.50001 0.86497,-41.00033 1.66797,-61.48633 0.756,-19.302 2.00145,-38.58486 2.93945,-57.88086 0.081,-1.666 0.78793,-2.02713 2.16993,-2.32813 5.693,-1.241 11.41511,-1.82498 17.16211,-1.83398 z m 122.71484,0 c 5.747,0.009 11.47011,0.59298 17.16211,1.83398 1.383,0.302 2.08792,0.66213 2.16992,2.32813 0.938,19.296 2.1815,38.57886 2.9375,57.88086 0.804,20.486 1.33492,40.98633 1.66992,61.48633 0.237,14.528 0.0913,29.0676 -0.13867,43.5996 -0.255,16.121 -0.61365,32.24452 -1.26562,48.35352 -0.70101,17.288 -1.78147,34.56284 -2.73047,51.83984 -0.182,3.31 -0.5213,6.61402 -0.7793,9.83204 -6.38,1.65998 -12.70439,2.61826 -19.02539,2.69726 -6.321,-0.079 -12.64539,-1.03726 -19.02539,-2.69726 -0.258,-3.21801 -0.59435,-6.52104 -0.77735,-9.83204 -0.949,-17.277 -2.03142,-34.55184 -2.73242,-51.83984 -0.653,-16.109 -1.00867,-32.23252 -1.26367,-48.35352 -0.23,-14.532 -0.37762,-29.0716 -0.14062,-43.5996 0.335,-20.50001 0.86592,-41.00033 1.66992,-61.48633 0.755,-19.302 1.9995,-38.58486 2.9375,-57.88086 0.081,-1.666 0.78792,-2.02713 2.16992,-2.32813 5.693,-1.241 11.41511,-1.82498 17.16211,-1.83398 z m 103.30469,0 c 5.747,0.009 11.47111,0.59298 17.16211,1.83398 1.383,0.302 2.08792,0.66213 2.16992,2.32813 0.938,19.296 2.18245,38.57886 2.93945,57.88086 0.803,20.486 1.33492,40.98633 1.66992,61.48633 0.238,14.528 0.0894,29.0676 -0.14062,43.5996 -0.255,16.121 -0.61263,32.24452 -1.26563,48.35352 -0.7,17.288 -1.78147,34.56284 -2.73047,51.83984 -0.182,3.31 -0.52029,6.61402 -0.77929,9.83204 -6.379,1.65998 -12.70439,2.61826 -19.02539,2.69726 -6.32,-0.079 -12.64244,-1.03726 -19.02344,-2.69726 -0.258,-3.21801 -0.5963,-6.52104 -0.7793,-9.83204 -0.948,-17.277 -2.03047,-34.55184 -2.73047,-51.83984 -0.654,-16.109 -1.01062,-32.23252 -1.26562,-48.35352 -0.23,-14.532 -0.37763,-29.0716 -0.14063,-43.5996 0.335,-20.50001 0.8669,-41.00033 1.66993,-61.48633 0.75499,-19.302 2.00045,-38.58486 2.93945,-57.88086 0.081,-1.666 0.78497,-2.02713 2.16797,-2.32813 5.692,-1.241 11.41611,-1.82498 17.16211,-1.83398 z m -361.43946,291.92773 390.70508,0 0,30.05469 -390.70508,0 0,-30.05469 z m -16.69531,41.74219 423.26172,0 0,21.70508 -423.26172,0 0,-21.70508 z"
     id="path4206"
     inkscape:connector-curvature="0" /></svg>