<?xml version="1.0" standalone="no"?>
<!DOCTYPE svg PUBLIC "-//W3C//DTD SVG 1.1//EN" "http://www.w3.org/Graphics/SVG/1.1/DTD/svg11.dtd" >
<svg xmlns="http://www.w3.org/2000/svg">
<metadata>Generated by IcoMoon</metadata>
<defs>
<font id="yolk" horiz-adv-x="1024">
<font-face units-per-em="1024" ascent="960" descent="-64" />
<missing-glyph horiz-adv-x="1024" />
<glyph unicode="&#x20;" horiz-adv-x="512" d="" />
<glyph unicode="&#xe900;" glyph-name="cancel" d="M512 960c-283.136 0-512-228.864-512-512s228.864-512 512-512c283.136 0 512 228.864 512 512s-228.864 512-512 512zM768 264.192l-72.192-72.192-183.808 183.808-183.808-183.808-72.192 72.192 183.808 183.808-183.808 183.808 72.192 72.192 183.808-183.808 183.808 183.808 72.192-72.192-183.808-183.808 183.808-183.808z" />
<glyph unicode="&#xe901;" glyph-name="close" d="M810.667 686.507l-60.16 60.16-238.507-238.507-238.507 238.507-60.16-60.16 238.507-238.507-238.507-238.507 60.16-60.16 238.507 238.507 238.507-238.507 60.16 60.16-238.507 238.507z" />
<glyph unicode="&#xe902;" glyph-name="down" d="M853.333 448l-60.16 60.16-238.507-238.080v519.253h-85.333v-519.253l-238.080 238.507-60.587-60.587 341.333-341.333 341.333 341.333z" />
<glyph unicode="&#xe903;" glyph-name="fullscreen_in" d="M298.667 362.667h-85.333v-213.333h213.333v85.333h-128v128zM213.333 533.333h85.333v128h128v85.333h-213.333v-213.333zM725.333 234.667h-128v-85.333h213.333v213.333h-85.333v-128zM597.333 746.667v-85.333h128v-128h85.333v213.333h-213.333z" />
<glyph unicode="&#xe904;" glyph-name="fullscreen_out" d="M213.333 277.333h128v-128h85.333v213.333h-213.333v-85.333zM341.333 618.667h-128v-85.333h213.333v213.333h-85.333v-128zM597.333 149.333h85.333v128h128v85.333h-213.333v-213.333zM682.667 618.667v128h-85.333v-213.333h213.333v85.333h-128z" />
<glyph unicode="&#xe905;" glyph-name="home" d="M426.667 106.667v256h170.667v-256h213.333v341.333h128l-426.667 384-426.667-384h128v-341.333z" />
<glyph unicode="&#xe906;" glyph-name="internetarchive" d="M511.999 960c-282.769 0-511.999-229.23-511.999-511.999 0-0.001 0-0.002 0-0.003 0-282.769 229.23-511.998 511.999-511.998s511.999 229.23 511.999 511.999c0 0.001 0 0.002 0 0.002 0 282.769-229.23 511.999-511.999 511.999zM507.615 783.176l284.915-66.626-16.364-18.117h-537.103l-16.364 18.117 284.915 66.626zM235.558 680.899h544.114v-58.444h-544.114v58.444zM280.521 610.394c8.047-0.013 16.058-0.83 24.029-2.568 1.935-0.423 2.925-0.927 3.038-3.26 1.315-27.017 3.057-54.015 4.116-81.041 1.124-28.683 1.866-57.386 2.335-86.089 0.333-20.341 0.126-40.698-0.194-61.045-0.356-22.571-0.858-45.146-1.772-67.701-0.98-24.205-2.494-48.392-3.823-72.582-0.255-4.634-0.728-9.26-1.091-13.766-8.933-2.324-17.788-3.666-26.638-3.777-8.85 0.111-17.704 1.452-26.635 3.777-0.363 4.506-0.839 9.13-1.094 13.766-1.329 24.19-2.843 48.377-3.823 72.582-0.914 22.555-1.416 45.13-1.772 67.701-0.322 20.347-0.526 40.704-0.194 61.045 0.468 28.703 1.211 57.406 2.335 86.089 1.058 27.025 2.801 54.024 4.116 81.041 0.113 2.333 1.1 2.838 3.035 3.26 7.971 1.738 15.985 2.555 24.032 2.568zM428.669 610.394c8.045-0.013 16.060-0.83 24.029-2.568 1.936-0.423 2.925-0.927 3.038-3.26 1.313-27.017 3.053-54.015 4.113-81.041 1.124-28.683 1.869-57.386 2.338-86.089 0.332-20.341 0.127-40.698-0.197-61.045-0.357-22.571-0.858-45.146-1.772-67.701-0.98-24.205-2.496-48.392-3.823-72.582-0.255-4.634-0.73-9.26-1.091-13.766-8.933-2.324-17.785-3.666-26.635-3.777-8.849 0.111-17.705 1.452-26.638 3.777-0.361 4.506-0.836 9.13-1.091 13.766-1.329 24.19-2.842 48.377-3.823 72.582-0.914 22.555-1.415 45.13-1.772 67.701-0.321 20.347-0.526 40.704-0.194 61.045 0.468 28.703 1.211 57.406 2.335 86.089 1.058 27.025 2.802 54.024 4.116 81.041 0.113 2.333 1.103 2.838 3.038 3.26 7.971 1.738 15.983 2.555 24.029 2.568zM600.486 610.394c8.047-0.013 16.060-0.83 24.029-2.568 1.936-0.423 2.923-0.927 3.038-3.26 1.313-27.017 3.054-54.015 4.113-81.041 1.126-28.683 1.869-57.386 2.338-86.089 0.332-20.341 0.128-40.698-0.194-61.045-0.357-22.571-0.859-45.146-1.772-67.701-0.982-24.205-2.494-48.392-3.823-72.582-0.255-4.634-0.73-9.26-1.091-13.766-8.933-2.324-17.788-3.666-26.638-3.777-8.85 0.111-17.705 1.452-26.638 3.777-0.361 4.506-0.832 9.13-1.088 13.766-1.329 24.19-2.844 48.377-3.826 72.582-0.914 22.555-1.412 45.13-1.769 67.701-0.322 20.347-0.529 40.704-0.197 61.045 0.469 28.703 1.212 57.406 2.338 86.089 1.057 27.025 2.8 54.024 4.113 81.041 0.113 2.333 1.103 2.838 3.038 3.26 7.971 1.738 15.983 2.555 24.029 2.568zM745.126 610.394c8.047-0.013 16.061-0.83 24.029-2.568 1.936-0.423 2.923-0.927 3.038-3.26 1.313-27.017 3.056-54.015 4.116-81.041 1.124-28.683 1.869-57.386 2.338-86.089 0.333-20.341 0.125-40.698-0.197-61.045-0.357-22.571-0.858-45.146-1.772-67.701-0.98-24.205-2.494-48.392-3.823-72.582-0.255-4.634-0.728-9.26-1.091-13.766-8.931-2.324-17.788-3.666-26.638-3.777-8.849 0.111-17.701 1.452-26.635 3.777-0.361 4.506-0.835 9.13-1.091 13.766-1.327 24.19-2.843 48.377-3.823 72.582-0.916 22.555-1.415 45.13-1.772 67.701-0.322 20.347-0.529 40.704-0.197 61.045 0.469 28.703 1.214 57.406 2.338 86.089 1.057 27.025 2.801 54.024 4.116 81.041 0.113 2.333 1.099 2.838 3.035 3.26 7.97 1.738 15.984 2.555 24.029 2.568zM239.064 201.658h547.037v-42.080h-547.037v42.080zM215.688 143.214h592.621v-30.39h-592.621v30.39z" />
<glyph unicode="&#xe907;" glyph-name="maximise" d="M682.667 917.333h-512c-46.933 0-85.333-38.4-85.333-85.333v-597.333h85.333v597.333h512v85.333zM810.667 746.667h-469.333c-46.933 0-85.333-38.4-85.333-85.333v-597.333c0-46.933 38.4-85.333 85.333-85.333h469.333c46.933 0 85.333 38.4 85.333 85.333v597.333c0 46.933-38.4 85.333-85.333 85.333zM810.667 64h-469.333v597.333h469.333v-597.333z" />
<glyph unicode="&#xe908;" glyph-name="minimise" d="M810.667 405.333h-597.333v85.333h597.333v-85.333z" />
<glyph unicode="&#xe909;" glyph-name="musicbrainz" d="M511.995 960c-282.767-0.002-511.995-229.231-511.995-511.998 0-0.003 0-0.005 0-0.008 0.002-282.765 229.229-511.992 511.995-511.994 282.766 0.002 511.993 229.229 511.995 511.995 0 0.002 0 0.005 0 0.007 0 282.768-229.227 511.996-511.995 511.998zM526.556 844.673l5.326-2.927c2.927-1.607 78.426-44.88 167.773-96.164l162.448-93.247 0.281-204.448 0.281-204.459-167.406-96.045c-92.075-52.829-167.699-96.056-168.054-96.056s-0.648 35.536-0.648 78.966v78.955l3.090 0.627c1.695 0.344 7.612 2.080 13.157 3.857 14.115 4.521 22.591 5.966 32.116 5.477 8.673-0.446 10.703-1.238 25.083-9.755 14.007-8.296 25.901-8.379 49.713-0.378l9.431 3.165 5.401-3.63c14.826-9.977 35.030-6.511 45.911 7.886 12.826 16.97 7.219 41.155-11.926 51.441-6.613 3.553-23.741 3.486-30.495-0.119-10.686-5.703-18.058-17.078-18.537-28.605l-0.259-6.19-9.949-3.003c-5.473-1.648-12.64-3.269-15.923-3.608-5.71-0.589-6.418-0.348-16.377 5.617-5.725 3.429-12.548 6.859-15.167 7.616s-4.764 1.706-4.764 2.117c0 0.411 1.313 1.974 2.917 3.468 10.202 9.503 26.466 33.176 35.94 52.306 3.581 7.23 7.021 13.515 7.637 13.968s2.381 0.842 3.921 0.864c7.69 0.114 19.505 9.017 24.435 18.407 2.546 4.849 2.981 7.060 2.981 15.199 0 8.166-0.431 10.342-3.014 15.264-10.301 19.629-36.547 24.738-52.943 10.306-14.223-12.519-15.723-34.016-3.349-47.779l5.088-5.661-5.563-11.094c-12.467-24.843-32.198-49.159-49.205-60.634-7.507-5.065-21.14-11.765-26.261-12.909l-3.090-0.691v231.087l4.202-0.735c9.456-1.652 17.212-6.782 30.063-19.898 19.81-20.217 22.883-21.22 63.864-20.87 38.703 0.33 44.245-1.249 65.225-18.537 19.132-15.765 46.039-44.207 55.86-59.046l2.668-4.029-3.111-6.622c-4.332-9.253-4.317-20.817 0.033-29.253 5.997-11.633 15.878-18.219 28.637-19.099 25.841-1.782 43.93 24.969 32.796 48.503-5.884 12.437-18.688 20.163-32.073 19.336l-6.73-0.421-7.475 10.122c-14.146 19.136-45.806 51.44-60.418 61.65-1.764 1.232-3.219 2.639-3.23 3.133s1.87 1.675 4.181 2.625c2.311 0.95 9.172 4.789 15.242 8.523 11.664 7.175 22.096 11.979 26.11 12.023 1.678 0.018 3.279-1.457 5.261-4.84 7.445-12.704 24.432-18.376 40.088-13.384 8.005 2.552 17.717 12.001 20.384 19.844 7.333 21.563-6.161 43.591-28.303 46.213l-5.52 0.659-1.361 7.972c-1.808 10.625-1.84 35.162-0.065 45.079l1.426 7.972 6.644 0.605c11.747 1.065 23.583 10.701 27.449 22.34 4.049 12.19-0.028 28.89-8.869 36.329-7.223 6.078-14.166 8.69-23.139 8.696-13.977 0.010-24.907-6.79-31.057-19.315-2.604-5.302-3.094-7.721-3.025-14.745 0.092-9.313 1.853-14.55 7.184-21.281l3.392-4.267-1.955-7.67c-2.745-10.79-2.745-50.932 0-63.011l1.88-8.286-3.23-3.684c-1.779-2.027-3.862-5.412-4.623-7.519-1.292-3.574-1.93-3.956-9.528-5.747-8.913-2.101-21.3-7.642-29.113-13.017-8.137-5.598-20.617-10.916-30.074-12.823-11.998-2.419-79.472-2.531-85.048-0.14-1.968 0.843-8.119 6.194-13.665 11.894-13.067 13.429-17.551 17.038-26.293 21.173-6.266 2.963-9.998 4.042-22.156 6.384l-2.528 0.486v131.034h3.802c2.089 0 7.83-0.761 12.758-1.696 29.266-5.552 54.913-20.312 73.144-42.086l4.591-5.477-3.176-6.46c-4.224-8.602-4.523-21.636-0.681-29.426 3.299-6.689 9.543-12.956 16.495-16.56 7.805-4.047 20.975-4.183 28.983-0.302 25.714 12.461 26.489 48.422 1.329 61.412-4.251 2.194-7.797 3.011-14.713 3.392l-9.117 0.497-4.062 5.326c-2.233 2.928-8.377 9.474-13.654 14.54s-9.436 9.36-9.236 9.549c0.2 0.189 3.436 1.584 7.184 3.1 9.263 3.749 18.627 9.907 26.52 17.435l6.579 6.287 9.733 0.033c11.252 0.045 17.894 2.609 24.857 9.571 16.217 16.217 11.742 44.5-8.62 54.499-5.624 2.761-7.799 3.197-16.031 3.176-10.398-0.027-15.347-1.846-22.718-8.318-10.107-8.874-13.631-24.887-8.35-37.96l2.819-6.957-6.211-5.531c-11.007-9.809-28.682-16.781-42.649-16.819-3.765-0.010-9.378 1.179-15.188 3.23-10.182 3.594-26.583 7.336-37.377 8.523l-7.011 0.767v202.709zM496.407 844.349c0.608 0.222 1.015-19.568 1.005-48.741l-0.011-49.108-90.546-55.179c-49.798-30.351-91.606-56.313-92.901-57.696s-2.886-3.937-3.543-5.671c-0.823-2.173-1.199-46.864-1.199-143.684v-140.53l-7-0.022c-29.882-0.071-58.238-22.972-64.318-51.949-6.042-28.795 13.625-50.774 43.383-48.492 23.391 1.793 54.155 21.758 65.031 42.205l2.679 5.034 1.123 135.463 69.46 41.168c38.204 22.646 71.351 42.245 73.662 43.545l4.202 2.355v-230.86c0-126.975-0.383-230.86-0.853-230.86s-76.096 43.164-168.054 95.926l-167.201 95.937 0.043 409.198 167.006 95.796c91.854 52.684 167.47 95.958 168.033 96.164zM664.266 682.776c0.596-0.012 1.179-0.086 1.739-0.227 4.97-1.247 8.437-5.839 8.437-11.17 0-3.972-0.587-5.275-3.446-7.681-4.678-3.936-10.875-3.967-14.778-0.065-3.795 3.795-4.566 7.515-2.56 12.315 1.656 3.964 6.436 6.908 10.608 6.827zM496.871 618.145l0.292-32.116c0.23-24.771-0.019-32.422-1.113-33.444-1.384-1.294-145.307-86.733-146.104-86.733-0.221 0-0.4 13.827-0.4 30.722s-0.249 31.382-0.551 32.202c-0.369 1.005 23.679 15.844 73.662 45.435l74.213 43.934zM774.808 605.743c6.754 0.793 13.776-4.9 12.326-12.628-1.29-6.875-10.186-11.601-15.782-8.383-6.94 3.991-8.305 12.468-2.884 17.889 1.87 1.87 4.090 2.858 6.341 3.122zM647.166 558.482c1.793 0.096 3.706-0.266 5.617-1.177 7.368-3.513 8.605-12.861 2.398-18.083-4.424-3.722-9.752-3.674-14.259 0.119-2.9 2.44-3.446 3.686-3.446 7.886 0 6.507 4.31 10.969 9.69 11.256zM776.364 475.941c10.452 0 15.033-13.159 6.687-19.207-4.057-2.939-7.915-3.419-11.829-1.458-10.363 5.192-6.512 20.665 5.142 20.665zM631.524 356.616c4.112 0 5.509-0.569 7.724-3.144 8.528-9.915-4.21-24.478-14.4-16.463-3.637 2.861-5.193 7.454-4.019 11.861 1.4 5.25 4.853 7.745 10.694 7.745zM775.683 330.291c5.566 0 8.854-2.029 10.77-6.654 3.026-7.306-2.215-14.637-10.468-14.637-4.2 0-5.457 0.557-7.897 3.457-1.856 2.206-2.895 4.795-2.895 7.194s1.039 4.989 2.895 7.194c2.389 2.839 3.729 3.446 7.594 3.446zM683.408 248.159c2.817 0 5.639-1.301 7.961-3.9 1.786-1.998 3.241-4.921 3.241-6.492 0-10.266-11.996-15.528-19.131-8.393-4.462 4.462-4.477 9.912-0.033 14.886 2.323 2.599 5.145 3.9 7.962 3.9z" />
<glyph unicode="&#xe90a;" glyph-name="next" d="M256 192l362.667 256-362.667 256v-512zM682.667 704v-512h85.333v512h-85.333z" />
<glyph unicode="&#xe90b;" glyph-name="pause" d="M384 277.333h85.333v341.333h-85.333v-341.333zM512 874.667c-235.52 0-426.667-191.147-426.667-426.667s191.147-426.667 426.667-426.667 426.667 191.147 426.667 426.667-191.147 426.667-426.667 426.667zM512 106.667c-188.16 0-341.333 153.173-341.333 341.333s153.173 341.333 341.333 341.333 341.333-153.173 341.333-341.333-153.173-341.333-341.333-341.333zM554.667 277.333h85.333v341.333h-85.333v-341.333z" />
<glyph unicode="&#xe90c;" glyph-name="play" d="M426.667 256l256 192-256 192v-384zM512 874.667c-235.52 0-426.667-191.147-426.667-426.667s191.147-426.667 426.667-426.667 426.667 191.147 426.667 426.667-191.147 426.667-426.667 426.667zM512 106.667c-188.16 0-341.333 153.173-341.333 341.333s153.173 341.333 341.333 341.333 341.333-153.173 341.333-341.333-153.173-341.333-341.333-341.333z" />
<glyph unicode="&#xe90d;" glyph-name="previous" d="M256 704h85.333v-512h-85.333zM405.333 448l362.667-256v512z" />
<glyph unicode="&#xe90e;" glyph-name="refresh" d="M753.067 689.067c-61.867 61.867-146.773 100.267-241.067 100.267-188.587 0-340.907-152.747-340.907-341.333s152.32-341.333 340.907-341.333c159.147 0 291.84 108.8 329.813 256h-88.747c-34.987-99.413-129.707-170.667-241.067-170.667-141.227 0-256 114.773-256 256s114.773 256 256 256c70.827 0 133.973-29.44 180.053-75.947l-137.387-137.387h298.667v298.667l-100.267-100.267z" />
<glyph unicode="&#xe90f;" glyph-name="search" d="M511.93 960c-282.737-0.027-511.93-229.237-511.93-511.978 0-0.008 0-0.016 0-0.024 0-0.005 0-0.013 0-0.021 0-282.741 229.193-511.951 511.928-511.978 0.009 0 0.017 0 0.025 0 282.757 0 511.978 229.22 511.978 511.978 0 0.008 0 0.016 0 0.024 0 0.005 0 0.013 0 0.021 0 282.757-229.22 511.978-511.978 511.978-0.008 0-0.016 0-0.024 0zM431.64 760.916c128.442 0 232.556-104.113 232.556-232.556 0-57.602-21.12-110.57-56.182-151.357l9.993-9.643h28.301l178.54-178.889-53.317-53.317-178.889 178.54v28.231l-9.643 9.993c-40.787-35.062-93.755-56.112-151.357-56.112-128.442 0-232.556 104.113-232.556 232.556s104.113 232.556 232.556 232.556zM431.64 689.36c-89.087 0-161-71.913-161-161s71.913-161 161-161c89.087 0 161 71.913 161 161s-71.913 161-161 161z" />
<glyph unicode="&#xe910;" glyph-name="settings" d="M829.013 406.187c1.707 13.653 2.987 27.307 2.987 41.813s-1.28 28.16-2.987 41.813l90.027 70.4c8.107 6.4 10.24 17.92 5.12 27.307l-85.333 147.627c-5.12 9.387-16.64 12.8-26.027 9.387l-106.24-42.667c-22.187 17.067-46.080 31.147-72.107 41.813l-16.213 113.067c-1.28 10.24-10.24 17.92-20.907 17.92h-170.667c-10.667 0-19.627-7.68-20.907-17.92l-16.213-113.067c-26.027-10.667-49.92-25.173-72.107-41.813l-106.24 42.667c-9.813 3.84-20.907 0-26.027-9.387l-85.333-147.627c-5.547-9.387-2.987-20.907 5.12-27.307l90.027-70.4c-1.707-13.653-2.987-27.733-2.987-41.813s1.28-28.16 2.987-41.813l-90.027-70.4c-8.107-6.4-10.24-17.92-5.12-27.307l85.333-147.627c5.12-9.387 16.64-12.8 26.027-9.387l106.24 42.667c22.187-17.067 46.080-31.147 72.107-41.813l16.213-113.067c1.28-10.24 10.24-17.92 20.907-17.92h170.667c10.667 0 19.627 7.68 20.907 17.92l16.213 113.067c26.027 10.667 49.92 25.173 72.107 41.813l106.24-42.667c9.813-3.84 20.907 0 26.027 9.387l85.333 147.627c5.12 9.387 2.987 20.907-5.12 27.307l-90.027 70.4zM512 298.667c-82.347 0-149.333 66.987-149.333 149.333s66.987 149.333 149.333 149.333 149.333-66.987 149.333-149.333-66.987-149.333-149.333-149.333z" />
<glyph unicode="&#xe911;" glyph-name="skip_back" d="M533.333 618.667c-113.067 0-215.467-42.24-294.4-110.933l-153.6 153.6v-384h384l-154.453 154.453c59.307 49.493 134.827 80.213 218.453 80.213 151.040 0 279.467-98.56 324.267-234.667l101.12 33.28c-59.307 178.773-226.987 308.053-425.387 308.053z" />
<glyph unicode="&#xe912;" glyph-name="skip_forward" d="M785.067 507.733c-78.933 68.693-181.333 110.933-294.4 110.933-198.4 0-366.080-129.28-424.96-308.053l100.693-33.28c44.8 136.107 172.8 234.667 324.267 234.667 83.2 0 159.147-30.72 218.453-80.213l-154.453-154.453h384v384l-153.6-153.6z" />
<glyph unicode="&#xe913;" glyph-name="up" d="M170.667 448l60.16-60.16 238.507 238.080v-519.253h85.333v519.253l238.080-238.507 60.587 60.587-341.333 341.333-341.333-341.333z" />
<glyph unicode="&#xe914;" glyph-name="yolk" d="M487.388 859.763c-34.223 0.125-68.208-2.59-101.266-8.258-114.252-19.588-231.22-78.37-304.286-168.363-57.383-70.677-89.358-170.447-80.321-261.036 10.176-102.016 69.658-202.709 146.738-270.306 76.706-67.269 184.236-99.499 285.752-109.666 122.894-12.309 257.481 1.422 365.384 61.518 92.943 51.765 173.615 139.987 210.753 239.68 22.288 59.829 21.587 132.022-1.547 191.529-40.685 104.653-127.054 196.245-225.509 250.228-88.228 48.376-193.028 74.299-295.697 74.674zM516.969 839.261c45.582-0.318 92.269-6.799 133.203-25.839 45.115-20.984 88.312-53.902 113.737-96.672 24.932-41.942 34.231-94.666 29.987-143.273-4.582-52.481-23.393-107.633-58.696-146.735-40.898-45.298-101.826-75.907-162.181-84.953-80.292-12.035-168.827 4.677-239.414 44.791-50.111 28.478-94.177 75.737-114.302 129.748-20.315 54.521-20.234 120.586 1.544 174.539 18.643 46.186 59.508 83.786 102.771 108.466 51.646 29.462 114.469 37.978 173.903 39.708 6.447 0.188 12.936 0.266 19.448 0.221zM502.739 783.671c0 0 0 0 0 0-14.999 0-27.158-6.367-27.159-14.222 0.001-7.855 12.16-14.222 27.159-14.222 0 0 0 0 0 0s0 0 0 0c14.999 0 27.158 6.367 27.159 14.222-0.001 7.855-12.16 14.222-27.159 14.222 0 0 0 0 0 0zM433.616 778.65c-14.997-0.001-27.155-6.368-27.156-14.222 0.001-7.854 12.159-14.221 27.156-14.222 0 0 0 0 0 0 14.999 0 27.158 6.367 27.159 14.222-0.001 7.855-12.16 14.222-27.159 14.222 0 0 0 0 0 0zM548.936 756.547c-8.784 0.019-15.856-3.666-17.453-9.73 0 0 0 0 0 0s0 0 0-0.001c-2.090-7.938 5.994-16.949 18.056-20.125s23.536 0.684 25.626 8.623c0 0.001 0 0.002 0.001 0.002 2.088 7.938-5.995 16.946-18.056 20.123-0.001 0-0.002 0.001-0.003 0.001-2.847 0.75-5.662 1.107-8.328 1.112zM480.728 746.761c-23.405 0-42.378-15.084-42.378-33.69 0 0 0 0 0-0.001s0 0 0-0.001c0-18.606 18.973-33.69 42.378-33.69s42.378 15.083 42.378 33.69c0 0 0 0 0 0.001s0 0 0 0.001c0 18.606-18.973 33.69-42.378 33.69zM405.89 740.976c-1.801 0.002-3.835-0.192-5.904-0.597-0.001 0-0.002 0-0.003-0.001 0 0 0 0 0 0-10.844-2.121-18.579-9.239-17.276-15.897 0 0 0 0 0 0 1.304-6.657 11.149-10.334 21.992-8.213 0 0 0 0 0.001 0 10.844 2.121 18.579 9.239 17.276 15.897 0 0 0 0 0 0-1.054 5.386-7.7 8.821-15.942 8.814zM560.467 711.825c0 0 0 0 0 0-12.961 0-23.467-7.74-23.468-17.289s10.507-17.289 23.468-17.289c0 0 0 0 0 0s0 0 0 0c12.961 0 23.467 7.74 23.468 17.289s-10.507 17.289-23.468 17.289c0 0 0 0 0 0zM408.237 702.591c-2.154 0.002-4.588-0.219-7.068-0.683-0.062-0.012-0.125-0.024-0.187-0.035-13.213-2.534-22.692-11.008-21.2-18.987 0.007-0.038 0.014-0.075 0.022-0.113 1.59-7.946 13.546-12.373 26.794-9.895 0.063 0.012 0.126 0.024 0.189 0.036 13.213 2.534 22.692 11.008 21.2 18.987-0.007 0.038-0.014 0.075-0.022 0.113-1.293 6.459-9.434 10.593-19.552 10.583z" />
<glyph unicode="&#xe915;" glyph-name="youtube" d="M512 960c-282.77-0.001-512-229.231-512-512.001s229.231-511.999 512.001-511.999c282.769 0.001 511.999 229.231 511.999 512.001s-229.231 511.999-512.001 511.999zM329.775 837.080h40.928l27.355-102.663 27.215 102.663h40.928l-48.723-155.915v-107.191h-38.979v107.191c0 0-40.391 131.419-48.723 155.915zM511.026 772.251c15.591 0 31.062-5.511 40.928-18.975 7.468-9.943 11.694-25.74 11.694-46.774v-70.162c0-20.918-3.446-35.372-10.914-45.218-9.864-13.422-26.116-20.534-41.707-20.534s-31.561 7.111-41.412 20.534c-7.587 9.846-11.209 24.301-11.209 45.218l0.036 69.991c0 21.035 4.070 37.001 11.657 46.945 9.851 13.463 23.28 18.975 40.928 18.975zM590.932 770.816h37.030v-159.813c0.863-5.471 3.188-7.47 7.896-7.47 7.088 0 13.501 6.16 21.338 17.215v150.068h37.030v-196.842h-37.030v21.438c-14.038-16.090-25.937-24.219-38.909-24.219-11.382 0-19.286 5.371-23.244 15.071-2.405 5.899-4.111 15.108-4.111 28.637v155.915zM511.026 739.024c-11.499 0-17.54-9.136-15.591-28.625v-77.957c-1.949-19.489 4.090-29.161 15.588-29.161s17.543 9.672 15.595 29.161l0.021 77.957c1.949 19.489-4.114 28.625-15.613 28.625zM511.872 522.528h0.256c0 0 122.16-0.002 203.597-5.862 11.374-1.349 36.181-1.465 58.31-24.538 17.449-17.581 23.137-57.506 23.137-57.506s5.81-46.883 5.81-93.768v-43.951c0-46.88-5.81-93.762-5.81-93.762s-5.689-39.923-23.137-57.506c-22.128-23.079-46.936-23.192-58.31-24.544-81.436-5.856-203.724-6.042-203.724-6.042s-151.31 1.376-197.868 5.825c-12.949 2.417-42.035 1.682-64.169 24.761-17.451 17.583-23.128 57.506-23.128 57.506s-5.819 46.882-5.819 93.762v43.951c0 46.885 5.819 93.768 5.819 93.768s5.678 39.924 23.128 57.506c22.134 23.073 46.935 23.19 58.313 24.538 81.436 5.86 203.597 5.862 203.597 5.862zM391.714 453.932l-122.783-0.040v-36.99h40.928v-224.127h38.979v224.127h42.877v37.030zM518.395 453.932v-261.157h35.081l0.049 19.623c11.789-14.586 24.643-22.136 37.188-22.136 14.050 0 24.318 7.522 29.027 22.002 2.356 8.256 3.898 20.967 3.898 38.979v77.957c0 18.447-2.364 31.058-4.72 38.89-4.709 14.588-14.155 22.705-28.205 22.705-12.98 0-25.882-7.983-37.279-22.008l0.043 85.144h-35.081zM701.159 390.491c-18.012 0-32.063-7.055-42.267-20.382-7.496-9.85-11.867-25.942-11.867-46.756v-68.213c0-20.695 4.807-35.184 12.303-44.929 10.201-13.308 24.251-19.949 42.709-19.949 18.435 0 32.912 6.971 42.673 21.112 4.29 6.243 7.062 13.319 8.253 21.14 0.318 3.533 1.255 11.579 1.255 22.949v5.524h-37.030c0-14.156 0.063-22.573-0.265-24.496-2.013-9.431-7.076-14.154-15.762-14.154-12.111 0-17.226 9.053-17.105 27.038v34.999h70.229l-0.009 39.844c0 20.815-4.098 36.041-11.474 45.891-9.891 13.327-23.94 20.382-41.64 20.382zM385.867 387.668v-153.966c0-13.529 1.703-22.738 4.108-28.637 3.958-9.7 11.862-15.068 23.244-15.068 12.972 0 24.874 8.125 38.912 24.215v-21.438h37.030v194.893h-37.030v-148.119c-7.837-11.054-14.253-17.212-21.341-17.212-4.709 0-7.030 1.996-7.893 7.467v157.864h-37.030zM571.838 358.309c10.175 0 14.769-5.722 14.769-25.211v-83.804c0-19.489-4.594-26.956-14.769-26.956-5.81 0-12.504 2.989-18.405 8.889l0.043 118.194c5.899 5.823 12.553 8.889 18.363 8.889zM700.83 358.309c11.697 0 16.356-5.413 16.356-23.427v-21.274l-33.132-0.036v21.554c0 18.215 4.993 23.183 16.776 23.183z" />
</font>
</defs>
</svg>
